%TF.GenerationSoftware,KiCad,Pcbnew,8.0.2*%
%TF.CreationDate,2025-01-11T16:17:31-03:00*%
%TF.ProjectId,EEG,4545472e-6b69-4636-9164-5f7063625858,rev?*%
%TF.SameCoordinates,Original*%
%TF.FileFunction,Paste,Top*%
%TF.FilePolarity,Positive*%
%FSLAX46Y46*%
G04 Gerber Fmt 4.6, Leading zero omitted, Abs format (unit mm)*
G04 Created by KiCad (PCBNEW 8.0.2) date 2025-01-11 16:17:31*
%MOMM*%
%LPD*%
G01*
G04 APERTURE LIST*
G04 Aperture macros list*
%AMRoundRect*
0 Rectangle with rounded corners*
0 $1 Rounding radius*
0 $2 $3 $4 $5 $6 $7 $8 $9 X,Y pos of 4 corners*
0 Add a 4 corners polygon primitive as box body*
4,1,4,$2,$3,$4,$5,$6,$7,$8,$9,$2,$3,0*
0 Add four circle primitives for the rounded corners*
1,1,$1+$1,$2,$3*
1,1,$1+$1,$4,$5*
1,1,$1+$1,$6,$7*
1,1,$1+$1,$8,$9*
0 Add four rect primitives between the rounded corners*
20,1,$1+$1,$2,$3,$4,$5,0*
20,1,$1+$1,$4,$5,$6,$7,0*
20,1,$1+$1,$6,$7,$8,$9,0*
20,1,$1+$1,$8,$9,$2,$3,0*%
G04 Aperture macros list end*
%ADD10RoundRect,0.237500X0.237500X-0.300000X0.237500X0.300000X-0.237500X0.300000X-0.237500X-0.300000X0*%
%ADD11RoundRect,0.150000X0.587500X0.150000X-0.587500X0.150000X-0.587500X-0.150000X0.587500X-0.150000X0*%
%ADD12R,0.400000X0.900000*%
%ADD13RoundRect,0.237500X-0.250000X-0.237500X0.250000X-0.237500X0.250000X0.237500X-0.250000X0.237500X0*%
%ADD14R,0.500000X0.800000*%
%ADD15R,0.400000X0.800000*%
%ADD16RoundRect,0.160000X-0.160000X0.197500X-0.160000X-0.197500X0.160000X-0.197500X0.160000X0.197500X0*%
%ADD17RoundRect,0.237500X0.300000X0.237500X-0.300000X0.237500X-0.300000X-0.237500X0.300000X-0.237500X0*%
%ADD18RoundRect,0.250000X0.412500X1.100000X-0.412500X1.100000X-0.412500X-1.100000X0.412500X-1.100000X0*%
%ADD19RoundRect,0.100000X-0.637500X-0.100000X0.637500X-0.100000X0.637500X0.100000X-0.637500X0.100000X0*%
%ADD20RoundRect,0.250000X-0.650000X1.000000X-0.650000X-1.000000X0.650000X-1.000000X0.650000X1.000000X0*%
%ADD21RoundRect,0.160000X0.160000X-0.197500X0.160000X0.197500X-0.160000X0.197500X-0.160000X-0.197500X0*%
%ADD22RoundRect,0.237500X-0.237500X0.300000X-0.237500X-0.300000X0.237500X-0.300000X0.237500X0.300000X0*%
%ADD23RoundRect,0.150000X-0.825000X-0.150000X0.825000X-0.150000X0.825000X0.150000X-0.825000X0.150000X0*%
%ADD24RoundRect,0.160000X-0.197500X-0.160000X0.197500X-0.160000X0.197500X0.160000X-0.197500X0.160000X0*%
%ADD25RoundRect,0.237500X-0.300000X-0.237500X0.300000X-0.237500X0.300000X0.237500X-0.300000X0.237500X0*%
%ADD26RoundRect,0.237500X0.250000X0.237500X-0.250000X0.237500X-0.250000X-0.237500X0.250000X-0.237500X0*%
%ADD27RoundRect,0.250000X-0.412500X-1.100000X0.412500X-1.100000X0.412500X1.100000X-0.412500X1.100000X0*%
%ADD28RoundRect,0.050000X-0.285000X-0.100000X0.285000X-0.100000X0.285000X0.100000X-0.285000X0.100000X0*%
%ADD29RoundRect,0.155000X-0.155000X0.212500X-0.155000X-0.212500X0.155000X-0.212500X0.155000X0.212500X0*%
%ADD30RoundRect,0.250000X-1.100000X0.412500X-1.100000X-0.412500X1.100000X-0.412500X1.100000X0.412500X0*%
%ADD31RoundRect,0.160000X0.197500X0.160000X-0.197500X0.160000X-0.197500X-0.160000X0.197500X-0.160000X0*%
%ADD32RoundRect,0.160000X0.160000X-0.222500X0.160000X0.222500X-0.160000X0.222500X-0.160000X-0.222500X0*%
%ADD33R,0.600000X1.160000*%
%ADD34R,0.300000X1.160000*%
%ADD35RoundRect,0.250000X1.100000X-0.412500X1.100000X0.412500X-1.100000X0.412500X-1.100000X-0.412500X0*%
%ADD36R,1.150000X3.600000*%
%ADD37RoundRect,0.150000X-0.150000X0.512500X-0.150000X-0.512500X0.150000X-0.512500X0.150000X0.512500X0*%
%ADD38R,1.400000X1.200000*%
%ADD39R,1.190000X1.190000*%
%ADD40R,0.850000X0.300000*%
%ADD41R,0.300000X0.850000*%
%ADD42RoundRect,0.160000X0.222500X0.160000X-0.222500X0.160000X-0.222500X-0.160000X0.222500X-0.160000X0*%
%ADD43RoundRect,0.155000X-0.212500X-0.155000X0.212500X-0.155000X0.212500X0.155000X-0.212500X0.155000X0*%
%ADD44RoundRect,0.160000X-0.222500X-0.160000X0.222500X-0.160000X0.222500X0.160000X-0.222500X0.160000X0*%
%ADD45RoundRect,0.150000X-0.512500X-0.150000X0.512500X-0.150000X0.512500X0.150000X-0.512500X0.150000X0*%
%ADD46R,0.900000X1.500000*%
%ADD47R,1.500000X0.900000*%
%ADD48R,0.900000X0.900000*%
G04 APERTURE END LIST*
D10*
%TO.C,C4*%
X183800000Y-96712500D03*
X183800000Y-94987500D03*
%TD*%
D11*
%TO.C,Q7*%
X147700000Y-95700000D03*
X147700000Y-93800000D03*
X145825000Y-94750000D03*
%TD*%
D12*
%TO.C,CN4*%
X184000000Y-90300000D03*
X184800000Y-90300000D03*
X185600000Y-90300000D03*
X186400000Y-90300000D03*
X186400000Y-88600000D03*
X185600000Y-88600000D03*
X184800000Y-88600000D03*
X184000000Y-88600000D03*
%TD*%
D13*
%TO.C,R10*%
X148880000Y-122925000D03*
X150705000Y-122925000D03*
%TD*%
D10*
%TO.C,C14*%
X185450000Y-101725000D03*
X185450000Y-103450000D03*
%TD*%
D12*
%TO.C,RN3*%
X178950000Y-87150000D03*
X179750000Y-87150000D03*
X180550000Y-87150000D03*
X181350000Y-87150000D03*
X181350000Y-85450000D03*
X180550000Y-85450000D03*
X179750000Y-85450000D03*
X178950000Y-85450000D03*
%TD*%
D14*
%TO.C,CN1*%
X168900000Y-90300000D03*
D15*
X169700000Y-90300000D03*
X170500000Y-90300000D03*
D14*
X171300000Y-90300000D03*
X171300000Y-88500000D03*
D15*
X170500000Y-88500000D03*
X169700000Y-88500000D03*
D14*
X168900000Y-88500000D03*
%TD*%
D16*
%TO.C,R7*%
X149842500Y-134477500D03*
X149842500Y-135672500D03*
%TD*%
D17*
%TO.C,C39*%
X156962500Y-105600000D03*
X155237500Y-105600000D03*
%TD*%
D18*
%TO.C,C22*%
X139852500Y-130625000D03*
X136727500Y-130625000D03*
%TD*%
D19*
%TO.C,U12*%
X158825000Y-100825000D03*
X158825000Y-101475000D03*
X158825000Y-102125000D03*
X158825000Y-102775000D03*
X158825000Y-103425000D03*
X158825000Y-104075000D03*
X158825000Y-104725000D03*
X158825000Y-105375000D03*
X164550000Y-105375000D03*
X164550000Y-104725000D03*
X164550000Y-104075000D03*
X164550000Y-103425000D03*
X164550000Y-102775000D03*
X164550000Y-102125000D03*
X164550000Y-101475000D03*
X164550000Y-100825000D03*
%TD*%
D20*
%TO.C,D1*%
X137480000Y-137425000D03*
X137480000Y-141425000D03*
%TD*%
D21*
%TO.C,R33*%
X172980000Y-117860000D03*
X172980000Y-116665000D03*
%TD*%
D10*
%TO.C,C10*%
X178515000Y-95850000D03*
X178515000Y-94125000D03*
%TD*%
%TO.C,C11*%
X177025000Y-95850000D03*
X177025000Y-94125000D03*
%TD*%
D19*
%TO.C,U10*%
X157375000Y-94001250D03*
X157375000Y-94651250D03*
X157375000Y-95301250D03*
X157375000Y-95951250D03*
X157375000Y-96601250D03*
X157375000Y-97251250D03*
X157375000Y-97901250D03*
X163100000Y-97901250D03*
X163100000Y-97251250D03*
X163100000Y-96601250D03*
X163100000Y-95951250D03*
X163100000Y-95301250D03*
X163100000Y-94651250D03*
X163100000Y-94001250D03*
%TD*%
D11*
%TO.C,Q4*%
X151600000Y-102700000D03*
X151600000Y-100800000D03*
X149725000Y-101750000D03*
%TD*%
%TO.C,Q16*%
X151600000Y-81700000D03*
X151600000Y-79800000D03*
X149725000Y-80750000D03*
%TD*%
D22*
%TO.C,C8*%
X175800000Y-112237500D03*
X175800000Y-113962500D03*
%TD*%
D23*
%TO.C,U9*%
X148880000Y-117525000D03*
X148880000Y-118795000D03*
X148880000Y-120065000D03*
X148880000Y-121335000D03*
X153830000Y-121335000D03*
X153830000Y-120065000D03*
X153830000Y-118795000D03*
X153830000Y-117525000D03*
%TD*%
D12*
%TO.C,CN3*%
X178950000Y-90300000D03*
X179750000Y-90300000D03*
X180550000Y-90300000D03*
X181350000Y-90300000D03*
X181350000Y-88600000D03*
X180550000Y-88600000D03*
X179750000Y-88600000D03*
X178950000Y-88600000D03*
%TD*%
D21*
%TO.C,R16*%
X155800000Y-99498750D03*
X155800000Y-98303750D03*
%TD*%
D24*
%TO.C,R29*%
X163205000Y-106700000D03*
X164400000Y-106700000D03*
%TD*%
D25*
%TO.C,C2*%
X184875000Y-117462500D03*
X186600000Y-117462500D03*
%TD*%
D26*
%TO.C,R8*%
X150667500Y-109025000D03*
X148842500Y-109025000D03*
%TD*%
D10*
%TO.C,C9*%
X182300000Y-96720000D03*
X182300000Y-94995000D03*
%TD*%
D27*
%TO.C,C24*%
X149280000Y-128975000D03*
X152405000Y-128975000D03*
%TD*%
D28*
%TO.C,U2*%
X169360000Y-83100000D03*
X169360000Y-83600000D03*
X169360000Y-84100000D03*
X170840000Y-84100000D03*
X170840000Y-83600000D03*
X170840000Y-83100000D03*
%TD*%
D10*
%TO.C,C13*%
X171700000Y-96720000D03*
X171700000Y-94995000D03*
%TD*%
D11*
%TO.C,Q3*%
X147700000Y-102700000D03*
X147700000Y-100800000D03*
X145825000Y-101750000D03*
%TD*%
D13*
%TO.C,R5*%
X148855000Y-110525000D03*
X150680000Y-110525000D03*
%TD*%
D10*
%TO.C,C6*%
X169400000Y-103062500D03*
X169400000Y-101337500D03*
%TD*%
D21*
%TO.C,R6*%
X150842500Y-134475000D03*
X150842500Y-135670000D03*
%TD*%
D11*
%TO.C,Q5*%
X147700000Y-99200000D03*
X147700000Y-97300000D03*
X145825000Y-98250000D03*
%TD*%
D29*
%TO.C,C19*%
X186600000Y-109100000D03*
X186600000Y-110235000D03*
%TD*%
D28*
%TO.C,U5*%
X184360000Y-83100000D03*
X184360000Y-83600000D03*
X184360000Y-84100000D03*
X185840000Y-84100000D03*
X185840000Y-83600000D03*
X185840000Y-83100000D03*
%TD*%
D16*
%TO.C,R18*%
X164600000Y-92453750D03*
X164600000Y-93648750D03*
%TD*%
D30*
%TO.C,C29*%
X142780000Y-112125000D03*
X142780000Y-115250000D03*
%TD*%
D24*
%TO.C,R30*%
X163205000Y-107700000D03*
X164400000Y-107700000D03*
%TD*%
D12*
%TO.C,RN2*%
X173800000Y-87150000D03*
X174600000Y-87150000D03*
X175400000Y-87150000D03*
X176200000Y-87150000D03*
X176200000Y-85450000D03*
X175400000Y-85450000D03*
X174600000Y-85450000D03*
X173800000Y-85450000D03*
%TD*%
D11*
%TO.C,Q6*%
X151600000Y-99200000D03*
X151600000Y-97300000D03*
X149725000Y-98250000D03*
%TD*%
D16*
%TO.C,R15*%
X155800000Y-92503750D03*
X155800000Y-93698750D03*
%TD*%
D10*
%TO.C,C12*%
X173200000Y-96720000D03*
X173200000Y-94995000D03*
%TD*%
D19*
%TO.C,U11*%
X157375000Y-84550000D03*
X157375000Y-85200000D03*
X157375000Y-85850000D03*
X157375000Y-86500000D03*
X157375000Y-87150000D03*
X157375000Y-87800000D03*
X157375000Y-88450000D03*
X163100000Y-88450000D03*
X163100000Y-87800000D03*
X163100000Y-87150000D03*
X163100000Y-86500000D03*
X163100000Y-85850000D03*
X163100000Y-85200000D03*
X163100000Y-84550000D03*
%TD*%
D31*
%TO.C,R20*%
X155797500Y-87750000D03*
X154602500Y-87750000D03*
%TD*%
D32*
%TO.C,C33*%
X139680000Y-113270000D03*
X139680000Y-112125000D03*
%TD*%
D27*
%TO.C,C25*%
X149280000Y-132275000D03*
X152405000Y-132275000D03*
%TD*%
D31*
%TO.C,R12*%
X155800000Y-97301250D03*
X154605000Y-97301250D03*
%TD*%
D33*
%TO.C,J2*%
X138080000Y-144215000D03*
X138880000Y-144215000D03*
D34*
X140030000Y-144215000D03*
X141030000Y-144215000D03*
X141530000Y-144215000D03*
X142530000Y-144215000D03*
D33*
X143680000Y-144215000D03*
X144480000Y-144215000D03*
X144480000Y-144215000D03*
X143680000Y-144215000D03*
D34*
X143030000Y-144215000D03*
X142030000Y-144215000D03*
X140530000Y-144215000D03*
X139530000Y-144215000D03*
D33*
X138880000Y-144215000D03*
X138080000Y-144215000D03*
%TD*%
D35*
%TO.C,C37*%
X156780000Y-121550000D03*
X156780000Y-118425000D03*
%TD*%
D36*
%TO.C,L1*%
X144367500Y-129375000D03*
X147317500Y-129375000D03*
%TD*%
D24*
%TO.C,R13*%
X164602500Y-97301250D03*
X165797500Y-97301250D03*
%TD*%
D37*
%TO.C,U8*%
X140405000Y-114792500D03*
X139455000Y-114792500D03*
X138505000Y-114792500D03*
X138505000Y-117067500D03*
X139455000Y-117067500D03*
X140405000Y-117067500D03*
%TD*%
D11*
%TO.C,Q1*%
X147700000Y-106200000D03*
X147700000Y-104300000D03*
X145825000Y-105250000D03*
%TD*%
%TO.C,Q9*%
X147700000Y-92200000D03*
X147700000Y-90300000D03*
X145825000Y-91250000D03*
%TD*%
D38*
%TO.C,Y1*%
X182400000Y-111050000D03*
X184800000Y-111050000D03*
X184800000Y-109150000D03*
X182400000Y-109150000D03*
%TD*%
D11*
%TO.C,Q15*%
X145825000Y-80750000D03*
X147700000Y-79800000D03*
X147700000Y-81700000D03*
%TD*%
D31*
%TO.C,R11*%
X155800000Y-94701250D03*
X154605000Y-94701250D03*
%TD*%
D21*
%TO.C,R24*%
X155800000Y-90045000D03*
X155800000Y-88850000D03*
%TD*%
%TO.C,R17*%
X164600000Y-99498750D03*
X164600000Y-98303750D03*
%TD*%
D11*
%TO.C,Q11*%
X147700000Y-88700000D03*
X147700000Y-86800000D03*
X145825000Y-87750000D03*
%TD*%
D39*
%TO.C,IC1*%
X174660000Y-99910000D03*
X174660000Y-101380000D03*
X174660000Y-102850000D03*
X174660000Y-104320000D03*
X174660000Y-105790000D03*
X176130000Y-99910000D03*
X176130000Y-101380000D03*
X176130000Y-102850000D03*
X176130000Y-104320000D03*
X176130000Y-105790000D03*
X177600000Y-99910000D03*
X177600000Y-101380000D03*
X177600000Y-102850000D03*
X177600000Y-104320000D03*
X177600000Y-105790000D03*
X179070000Y-99910000D03*
X179070000Y-101380000D03*
X179070000Y-102850000D03*
X179070000Y-104320000D03*
X179070000Y-105790000D03*
X180540000Y-99910000D03*
X180540000Y-101380000D03*
X180540000Y-102850000D03*
X180540000Y-104320000D03*
X180540000Y-105790000D03*
D40*
X173150000Y-99100000D03*
X173150000Y-99600000D03*
X173150000Y-100100000D03*
X173150000Y-100600000D03*
X173150000Y-101100000D03*
X173150000Y-101600000D03*
X173150000Y-102100000D03*
X173150000Y-102600000D03*
X173150000Y-103100000D03*
X173150000Y-103600000D03*
X173150000Y-104100000D03*
X173150000Y-104600000D03*
X173150000Y-105100000D03*
X173150000Y-105600000D03*
X173150000Y-106100000D03*
X173150000Y-106600000D03*
D41*
X173850000Y-107300000D03*
X174350000Y-107300000D03*
X174850000Y-107300000D03*
X175350000Y-107300000D03*
X175850000Y-107300000D03*
X176350000Y-107300000D03*
X176850000Y-107300000D03*
X177350000Y-107300000D03*
X177850000Y-107300000D03*
X178350000Y-107300000D03*
X178850000Y-107300000D03*
X179350000Y-107300000D03*
X179850000Y-107300000D03*
X180350000Y-107300000D03*
X180850000Y-107300000D03*
X181350000Y-107300000D03*
D40*
X182050000Y-106600000D03*
X182050000Y-106100000D03*
X182050000Y-105600000D03*
X182050000Y-105100000D03*
X182050000Y-104600000D03*
X182050000Y-104100000D03*
X182050000Y-103600000D03*
X182050000Y-103100000D03*
X182050000Y-102600000D03*
X182050000Y-102100000D03*
X182050000Y-101600000D03*
X182050000Y-101100000D03*
X182050000Y-100600000D03*
X182050000Y-100100000D03*
X182050000Y-99600000D03*
X182050000Y-99100000D03*
D41*
X181350000Y-98400000D03*
X180850000Y-98400000D03*
X180350000Y-98400000D03*
X179850000Y-98400000D03*
X179350000Y-98400000D03*
X178850000Y-98400000D03*
X178350000Y-98400000D03*
X177850000Y-98400000D03*
X177350000Y-98400000D03*
X176850000Y-98400000D03*
X176350000Y-98400000D03*
X175850000Y-98400000D03*
X175350000Y-98400000D03*
X174850000Y-98400000D03*
X174350000Y-98400000D03*
X173850000Y-98400000D03*
%TD*%
D42*
%TO.C,C34*%
X140622500Y-118492500D03*
X139477500Y-118492500D03*
%TD*%
D24*
%TO.C,R14*%
X164605000Y-94701250D03*
X165800000Y-94701250D03*
%TD*%
D31*
%TO.C,R19*%
X155800000Y-85250000D03*
X154605000Y-85250000D03*
%TD*%
D16*
%TO.C,Rcc1*%
X142980000Y-141230000D03*
X142980000Y-142425000D03*
%TD*%
D11*
%TO.C,Q14*%
X151600000Y-85200000D03*
X151600000Y-83300000D03*
X149725000Y-84250000D03*
%TD*%
D42*
%TO.C,C26*%
X150487500Y-126875000D03*
X149342500Y-126875000D03*
%TD*%
D35*
%TO.C,C36*%
X145980000Y-121225000D03*
X145980000Y-118100000D03*
%TD*%
D32*
%TO.C,C20*%
X143205000Y-134570000D03*
X143205000Y-133425000D03*
%TD*%
%TO.C,C27*%
X148842500Y-135675000D03*
X148842500Y-134530000D03*
%TD*%
D11*
%TO.C,Q2*%
X151600000Y-106200000D03*
X151600000Y-104300000D03*
X149725000Y-105250000D03*
%TD*%
D24*
%TO.C,R22*%
X164700000Y-85250000D03*
X165895000Y-85250000D03*
%TD*%
D43*
%TO.C,C18*%
X182000000Y-112600000D03*
X183135000Y-112600000D03*
%TD*%
D24*
%TO.C,R21*%
X164700000Y-87850000D03*
X165895000Y-87850000D03*
%TD*%
D12*
%TO.C,CN2*%
X173800000Y-90300000D03*
X174600000Y-90300000D03*
X175400000Y-90300000D03*
X176200000Y-90300000D03*
X176200000Y-88600000D03*
X175400000Y-88600000D03*
X174600000Y-88600000D03*
X173800000Y-88600000D03*
%TD*%
D16*
%TO.C,R26*%
X164700000Y-82952500D03*
X164700000Y-84147500D03*
%TD*%
D31*
%TO.C,R4*%
X145500000Y-135625000D03*
X144305000Y-135625000D03*
%TD*%
D22*
%TO.C,C17*%
X174300000Y-112237500D03*
X174300000Y-113962500D03*
%TD*%
D21*
%TO.C,R25*%
X164700000Y-90147500D03*
X164700000Y-88952500D03*
%TD*%
D30*
%TO.C,C7*%
X178300000Y-109350000D03*
X178300000Y-112475000D03*
%TD*%
D16*
%TO.C,R23*%
X155800000Y-82955000D03*
X155800000Y-84150000D03*
%TD*%
D44*
%TO.C,C23*%
X138707500Y-128125000D03*
X139852500Y-128125000D03*
%TD*%
D21*
%TO.C,R34*%
X171480000Y-117862500D03*
X171480000Y-116667500D03*
%TD*%
D35*
%TO.C,C38*%
X159980000Y-121550000D03*
X159980000Y-118425000D03*
%TD*%
D10*
%TO.C,C16*%
X167900000Y-103062500D03*
X167900000Y-101337500D03*
%TD*%
D16*
%TO.C,Rcc2*%
X139880000Y-141230000D03*
X139880000Y-142425000D03*
%TD*%
D30*
%TO.C,C30*%
X159980000Y-113425000D03*
X159980000Y-116550000D03*
%TD*%
D11*
%TO.C,Q10*%
X151600000Y-92200000D03*
X151600000Y-90300000D03*
X149725000Y-91250000D03*
%TD*%
D17*
%TO.C,C3*%
X180200000Y-120762500D03*
X178475000Y-120762500D03*
%TD*%
D28*
%TO.C,U3*%
X174360000Y-83100000D03*
X174360000Y-83600000D03*
X174360000Y-84100000D03*
X175840000Y-84100000D03*
X175840000Y-83600000D03*
X175840000Y-83100000D03*
%TD*%
D18*
%TO.C,C21*%
X139852500Y-134125000D03*
X136727500Y-134125000D03*
%TD*%
D26*
%TO.C,R9*%
X150705000Y-124425000D03*
X148880000Y-124425000D03*
%TD*%
D29*
%TO.C,C5*%
X185100000Y-96765000D03*
X185100000Y-97900000D03*
%TD*%
D35*
%TO.C,C35*%
X142780000Y-121225000D03*
X142780000Y-118100000D03*
%TD*%
D23*
%TO.C,U6*%
X148880000Y-112125000D03*
X148880000Y-113395000D03*
X148880000Y-114665000D03*
X148880000Y-115935000D03*
X153830000Y-115935000D03*
X153830000Y-114665000D03*
X153830000Y-113395000D03*
X153830000Y-112125000D03*
%TD*%
D11*
%TO.C,Q13*%
X147700000Y-85200000D03*
X147700000Y-83300000D03*
X145825000Y-84250000D03*
%TD*%
D28*
%TO.C,U4*%
X179360000Y-83100000D03*
X179360000Y-83600000D03*
X179360000Y-84100000D03*
X180840000Y-84100000D03*
X180840000Y-83600000D03*
X180840000Y-83100000D03*
%TD*%
D30*
%TO.C,C28*%
X145980000Y-112125000D03*
X145980000Y-115250000D03*
%TD*%
D45*
%TO.C,U7*%
X144667500Y-132475000D03*
X144667500Y-133425000D03*
X144667500Y-134375000D03*
X146942500Y-134375000D03*
X146942500Y-133425000D03*
X146942500Y-132475000D03*
%TD*%
D27*
%TO.C,C1*%
X184875000Y-119862500D03*
X188000000Y-119862500D03*
%TD*%
D12*
%TO.C,RN4*%
X184000000Y-87150000D03*
X184800000Y-87150000D03*
X185600000Y-87150000D03*
X186400000Y-87150000D03*
X186400000Y-85450000D03*
X185600000Y-85450000D03*
X184800000Y-85450000D03*
X184000000Y-85450000D03*
%TD*%
D24*
%TO.C,R28*%
X163205000Y-108700000D03*
X164400000Y-108700000D03*
%TD*%
D12*
%TO.C,RN1*%
X168900000Y-87150000D03*
X169700000Y-87150000D03*
X170500000Y-87150000D03*
X171300000Y-87150000D03*
X171300000Y-85450000D03*
X170500000Y-85450000D03*
X169700000Y-85450000D03*
X168900000Y-85450000D03*
%TD*%
D31*
%TO.C,R1*%
X183277500Y-120762500D03*
X182082500Y-120762500D03*
%TD*%
D30*
%TO.C,C31*%
X156780000Y-113425000D03*
X156780000Y-116550000D03*
%TD*%
D32*
%TO.C,C32*%
X140680000Y-113270000D03*
X140680000Y-112125000D03*
%TD*%
D11*
%TO.C,Q8*%
X151600000Y-95700000D03*
X151600000Y-93800000D03*
X149725000Y-94750000D03*
%TD*%
%TO.C,Q12*%
X151600000Y-88700000D03*
X151600000Y-86800000D03*
X149725000Y-87750000D03*
%TD*%
D10*
%TO.C,C15*%
X186950000Y-101725000D03*
X186950000Y-103450000D03*
%TD*%
D46*
%TO.C,U1*%
X184320000Y-122762500D03*
X183050000Y-122762500D03*
X181780000Y-122762500D03*
X180510000Y-122762500D03*
X179240000Y-122762500D03*
X177970000Y-122762500D03*
X176700000Y-122762500D03*
X175430000Y-122762500D03*
X174160000Y-122762500D03*
X172890000Y-122762500D03*
X171620000Y-122762500D03*
X170350000Y-122762500D03*
X169080000Y-122762500D03*
X167810000Y-122762500D03*
D47*
X166560000Y-124527500D03*
X166560000Y-125797500D03*
X166560000Y-127067500D03*
X166560000Y-128337500D03*
X166560000Y-129607500D03*
X166560000Y-130877500D03*
X166560000Y-132147500D03*
X166560000Y-133417500D03*
X166560000Y-134687500D03*
X166560000Y-135957500D03*
X166560000Y-137227500D03*
X166560000Y-138497500D03*
D46*
X167810000Y-140262500D03*
X169080000Y-140262500D03*
X170350000Y-140262500D03*
X171620000Y-140262500D03*
X172890000Y-140262500D03*
X174160000Y-140262500D03*
X175430000Y-140262500D03*
X176700000Y-140262500D03*
X177970000Y-140262500D03*
X179240000Y-140262500D03*
X180510000Y-140262500D03*
X181780000Y-140262500D03*
X183050000Y-140262500D03*
X184320000Y-140262500D03*
D48*
X178000000Y-128612500D03*
X176600000Y-128612500D03*
X175200000Y-128612500D03*
X175200000Y-128612500D03*
X178000000Y-130012500D03*
X178000000Y-130012500D03*
X176600000Y-130012500D03*
X175200000Y-130012500D03*
X178000000Y-131412500D03*
X176600000Y-131412500D03*
X175200000Y-131412500D03*
%TD*%
M02*
