M48
; DRILL file {KiCad 8.0.2} date 2025-01-11T16:17:31-0300
; FORMAT={-:-/ absolute / inch / decimal}
; #@! TF.CreationDate,2025-01-11T16:17:31-03:00
; #@! TF.GenerationSoftware,Kicad,Pcbnew,8.0.2
; #@! TF.FileFunction,Plated,1,2,PTH
FMAT,2
INCH
; #@! TA.AperFunction,Plated,PTH,ViaDrill
T1C0.0118
; #@! TA.AperFunction,Plated,PTH,ComponentDrill
T2C0.0197
; #@! TA.AperFunction,Plated,PTH,ComponentDrill
T3C0.0236
; #@! TA.AperFunction,Plated,PTH,ComponentDrill
T4C0.0374
; #@! TA.AperFunction,Plated,PTH,ComponentDrill
T5C0.0394
; #@! TA.AperFunction,Plated,PTH,ComponentDrill
T6C0.0512
; #@! TA.AperFunction,Plated,PTH,ComponentDrill
T7C0.1260
%
G90
G05
T1
X5.3386Y-4.2559
X5.3386Y-4.3346
X5.3386Y-4.4134
X5.3386Y-4.4921
X5.3386Y-4.5709
X5.3386Y-4.6496
X5.3386Y-4.7283
X5.3386Y-5.437
X5.3386Y-5.5157
X5.3386Y-5.5945
X5.3386Y-5.6732
X5.3386Y-5.752
X5.3386Y-5.8307
X5.4173Y-4.2559
X5.4677Y-5.6778
X5.4961Y-4.2559
X5.5197Y-4.4606
X5.5748Y-4.2559
X5.6142Y-5.437
X5.6201Y-4.4764
X5.6378Y-5.3268
X5.6535Y-4.2559
X5.6567Y-5.6778
X5.685Y-4.4154
X5.6929Y-5.437
X5.6929Y-5.5945
X5.6949Y-5.2087
X5.7323Y-4.2559
X5.7402Y-3.063
X5.7402Y-3.7283
X5.7411Y-3.1791
X5.7411Y-3.3169
X5.7411Y-3.4547
X5.7411Y-3.5925
X5.7411Y-3.8681
X5.7411Y-4.0059
X5.7411Y-4.1437
X5.7717Y-5.437
X5.7717Y-5.5945
X5.7835Y-5.2126
X5.811Y-4.2559
X5.8504Y-5.5945
X5.8622Y-4.626
X5.878Y-4.9469
X5.878Y-5.2717
X5.8947Y-3.1791
X5.8947Y-3.3169
X5.8947Y-3.4547
X5.8947Y-3.5925
X5.8947Y-3.7303
X5.8947Y-3.8681
X5.8947Y-4.0059
X5.8947Y-4.1437
X5.9291Y-4.563
X5.9331Y-4.3228
X5.9567Y-4.8386
X5.9685Y-5.5945
X6.0079Y-5.3189
X6.0433Y-3.9331
X6.0472Y-4.2559
X6.0472Y-5.5945
X6.0512Y-3.4134
X6.126Y-4.2559
X6.126Y-4.8858
X6.126Y-5.0433
X6.126Y-5.122
X6.126Y-5.2008
X6.126Y-5.5945
X6.1389Y-4.1042
X6.1447Y-3.7746
X6.1467Y-3.4055
X6.1694Y-4.0966
X6.1732Y-4.6614
X6.1919Y-4.0709
X6.2047Y-4.2559
X6.2047Y-4.8858
X6.2047Y-5.0433
X6.2047Y-5.5157
X6.2106Y-4.0443
X6.2362Y-4.5906
X6.2392Y-3.8097
X6.2446Y-3.7787
X6.247Y-3.435
X6.2519Y-3.4039
X6.252Y-4.1555
X6.252Y-5.7126
X6.2835Y-4.8858
X6.2835Y-5.0433
X6.2835Y-5.2008
X6.2835Y-5.437
X6.3455Y-4.1033
X6.3494Y-3.4321
X6.3622Y-4.8858
X6.3622Y-5.0433
X6.3622Y-5.122
X6.3622Y-5.3583
X6.3622Y-5.6732
X6.3691Y-3.8012
X6.3691Y-4.0475
X6.377Y-4.0915
X6.3799Y-3.3799
X6.3907Y-4.0138
X6.4173Y-4.6614
X6.4409Y-5.5945
X6.4409Y-5.6732
X6.4419Y-3.9951
X6.471Y-3.4075
X6.471Y-3.7776
X6.4783Y-3.9675
X6.5048Y-3.8031
X6.5177Y-4.0197
X6.5197Y-5.5157
X6.5197Y-5.5945
X6.5551Y-5.2598
X6.5709Y-5.2008
X6.5984Y-3.626
X6.5984Y-3.7047
X6.5984Y-3.7835
X6.5984Y-3.8622
X6.6063Y-5.5157
X6.6496Y-3.3189
X6.6496Y-3.4567
X6.6811Y-3.4843
X6.7126Y-3.3661
X6.7126Y-3.4567
X6.7165Y-4.2559
X6.7165Y-4.3346
X6.7165Y-4.4134
X6.7362Y-3.9006
X6.7412Y-4.1643
X6.7441Y-3.3307
X6.7441Y-3.4843
X6.7441Y-4.1122
X6.7559Y-4.6772
X6.7579Y-3.8684
X6.7579Y-4.065
X6.7642Y-4.188
X6.7702Y-3.937
X6.7717Y-3.2598
X6.7837Y-4.2135
X6.8071Y-4.6811
X6.8169Y-3.8937
X6.8177Y-4.2547
X6.8346Y-3.2953
X6.8346Y-5.0433
X6.8346Y-5.122
X6.8346Y-5.2008
X6.8346Y-5.2795
X6.8403Y-4.2766
X6.8425Y-3.4606
X6.8504Y-3.3228
X6.8583Y-4.8307
X6.8676Y-4.2923
X6.874Y-3.4882
X6.8976Y-4.3021
X6.8976Y-4.8346
X6.9055Y-3.3622
X6.9055Y-3.4606
X6.9134Y-4.9646
X6.9134Y-5.2795
X6.9272Y-4.2913
X6.937Y-3.3307
X6.937Y-3.4882
X6.9567Y-4.7598
X6.9685Y-3.2638
X6.9921Y-4.9646
X6.9921Y-5.2795
X7.0039Y-4.8307
X7.0226Y-3.8346
X7.0276Y-3.2953
X7.0315Y-4.6496
X7.0433Y-3.4606
X7.0472Y-3.3228
X7.0689Y-3.6663
X7.0709Y-4.9646
X7.0709Y-5.0433
X7.0709Y-5.122
X7.0709Y-5.2008
X7.0709Y-5.2795
X7.0768Y-3.4882
X7.1063Y-3.4606
X7.1102Y-3.3661
X7.1102Y-4.6496
X7.1378Y-3.3307
X7.1417Y-3.248
X7.1417Y-3.4882
X7.189Y-4.4921
X7.1929Y-4.2283
X7.1978Y-3.8937
X7.2104Y-4.2021
X7.2283Y-3.2953
X7.2315Y-3.91
X7.2343Y-4.0433
X7.2441Y-3.4882
X7.248Y-3.3228
X7.2574Y-3.9735
X7.2628Y-3.7402
X7.2677Y-4.9646
X7.2677Y-5.0433
X7.2677Y-5.122
X7.2677Y-5.2008
X7.2677Y-5.2795
X7.2677Y-5.3583
X7.2756Y-3.4685
X7.2788Y-3.9094
X7.2802Y-4.1617
X7.2933Y-4.1137
X7.3012Y-3.9331
X7.3043Y-4.1853
X7.3071Y-3.3661
X7.3071Y-3.4882
X7.3133Y-4.1381
X7.3307Y-4.0059
X7.3425Y-3.248
X7.3465Y-3.4882
X7.4252Y-3.2323
X7.4252Y-3.311
X7.4252Y-3.3898
X7.4252Y-4.4921
X7.4252Y-4.5709
X7.5039Y-3.2323
X7.5039Y-3.3898
X7.5039Y-3.7835
X7.5039Y-3.8622
X7.5039Y-3.9409
X7.5039Y-4.0197
X7.5039Y-4.0984
X7.5039Y-4.1772
X7.5039Y-4.2559
X7.5039Y-4.3346
X7.5039Y-4.4134
X7.5039Y-4.4921
X7.5039Y-4.5709
X7.5039Y-4.6496
X7.5039Y-4.7283
X7.5827Y-3.2323
X7.5827Y-3.311
X7.5827Y-3.3898
X7.5827Y-3.7835
X7.5827Y-3.8622
X7.5827Y-3.9409
X7.5827Y-4.0197
X7.5827Y-4.0984
X7.5827Y-4.1772
X7.5827Y-4.2559
X7.5827Y-4.3346
X7.5827Y-4.4134
X7.5827Y-4.4921
X7.5827Y-4.5709
X7.5827Y-4.6496
X7.5827Y-4.7283
T2
X5.3503Y-4.8739
X5.378Y-4.8071
X5.378Y-4.9407
X5.4448Y-4.7794
X5.4448Y-4.9684
X5.5116Y-4.8071
X5.5116Y-4.9407
X5.5393Y-4.8739
X7.4252Y-3.5866
X7.4529Y-3.5198
X7.4529Y-3.6534
X7.5197Y-3.4921
X7.5197Y-3.6811
X7.5865Y-3.5198
X7.5865Y-3.6534
X7.6142Y-3.5866
T4
X6.622Y-5.7126
X6.622Y-5.811
X6.9173Y-5.7126
X6.9173Y-5.811
X7.2126Y-5.7126
X7.2126Y-5.811
T5
X5.4339Y-3.3856
X5.4339Y-3.4758
X5.4339Y-3.5659
X5.4339Y-3.6561
X5.4339Y-3.7463
X5.5118Y-3.4307
X5.5118Y-3.5209
X5.5118Y-3.611
X5.5118Y-3.7012
X5.5118Y-3.7913
X5.5898Y-3.3856
X5.5898Y-3.4758
X5.5898Y-3.5659
X5.5898Y-3.6561
X5.5898Y-3.7463
X5.9016Y-5.8701
X6.0016Y-5.8701
X6.1016Y-5.8701
X6.2016Y-5.8701
X6.3016Y-5.8701
X6.4016Y-5.8701
X6.8134Y-3.0945
X6.8679Y-2.9827
X6.9224Y-3.0945
X6.977Y-2.9827
X7.0315Y-3.0945
X7.086Y-2.9827
X7.1406Y-3.0945
X7.1951Y-2.9827
X7.2496Y-3.0945
X7.4774Y-5.6526
X7.4774Y-5.7526
X7.4774Y-5.8526
X7.5774Y-5.6526
X7.5774Y-5.7526
X7.5774Y-5.8526
T6
X5.7992Y-2.8858
X5.9961Y-2.8858
X6.1929Y-2.8858
T7
X5.4448Y-4.8739
X5.5091Y-4.0685
X5.5091Y-3.0843
X6.5394Y-3.0827
X7.5197Y-3.5866
X7.5236Y-3.0827
T3
G00X5.3921Y-5.7222
M15
G01X5.3921Y-5.6789
M16
G05
G00X5.3921Y-5.8805
M15
G01X5.3921Y-5.849
M16
G05
G00X5.7323Y-5.7222
M15
G01X5.7323Y-5.6789
M16
G05
G00X5.7323Y-5.8805
M15
G01X5.7323Y-5.849
M16
G05
M30
