%TF.GenerationSoftware,KiCad,Pcbnew,8.0.2*%
%TF.CreationDate,2025-01-11T16:17:31-03:00*%
%TF.ProjectId,EEG,4545472e-6b69-4636-9164-5f7063625858,rev?*%
%TF.SameCoordinates,Original*%
%TF.FileFunction,Legend,Bot*%
%TF.FilePolarity,Positive*%
%FSLAX46Y46*%
G04 Gerber Fmt 4.6, Leading zero omitted, Abs format (unit mm)*
G04 Created by KiCad (PCBNEW 8.0.2) date 2025-01-11 16:17:31*
%MOMM*%
%LPD*%
G01*
G04 APERTURE LIST*
G04 Aperture macros list*
%AMRoundRect*
0 Rectangle with rounded corners*
0 $1 Rounding radius*
0 $2 $3 $4 $5 $6 $7 $8 $9 X,Y pos of 4 corners*
0 Add a 4 corners polygon primitive as box body*
4,1,4,$2,$3,$4,$5,$6,$7,$8,$9,$2,$3,0*
0 Add four circle primitives for the rounded corners*
1,1,$1+$1,$2,$3*
1,1,$1+$1,$4,$5*
1,1,$1+$1,$6,$7*
1,1,$1+$1,$8,$9*
0 Add four rect primitives between the rounded corners*
20,1,$1+$1,$2,$3,$4,$5,0*
20,1,$1+$1,$4,$5,$6,$7,0*
20,1,$1+$1,$6,$7,$8,$9,0*
20,1,$1+$1,$8,$9,$2,$3,0*%
G04 Aperture macros list end*
%ADD10C,0.000000*%
%ADD11C,0.800000*%
%ADD12C,6.400000*%
%ADD13C,4.000000*%
%ADD14R,1.600000X1.600000*%
%ADD15C,1.600000*%
%ADD16C,1.250000*%
%ADD17RoundRect,0.250000X-0.725000X0.600000X-0.725000X-0.600000X0.725000X-0.600000X0.725000X0.600000X0*%
%ADD18O,1.950000X1.700000*%
%ADD19C,0.600000*%
%ADD20O,0.900000X2.000000*%
%ADD21O,0.900000X1.700000*%
%ADD22R,2.600000X2.600000*%
%ADD23C,2.600000*%
%ADD24R,1.700000X1.700000*%
%ADD25O,1.700000X1.700000*%
G04 APERTURE END LIST*
D10*
%TO.C,G\u002A\u002A\u002A*%
G36*
X159437990Y-93639960D02*
G01*
X159670575Y-93711503D01*
X159884437Y-93826657D01*
X160071744Y-93981420D01*
X160224664Y-94171788D01*
X160335366Y-94393761D01*
X160395870Y-94558232D01*
X163549185Y-94558232D01*
X166702500Y-94558232D01*
X166702500Y-94815664D01*
X166702500Y-95073097D01*
X163547653Y-95073097D01*
X160392806Y-95073097D01*
X160347553Y-95209494D01*
X160252554Y-95417873D01*
X160104039Y-95618170D01*
X159913122Y-95788939D01*
X159686218Y-95923255D01*
X159618066Y-95953548D01*
X159542259Y-95979472D01*
X159461755Y-95994334D01*
X159359087Y-96001088D01*
X159216785Y-96002691D01*
X159208320Y-96002690D01*
X159070988Y-96001195D01*
X158971831Y-95994621D01*
X158892833Y-95979620D01*
X158815977Y-95952841D01*
X158723247Y-95910936D01*
X158637630Y-95865769D01*
X158430664Y-95715189D01*
X158255070Y-95525881D01*
X158122746Y-95309758D01*
X158120193Y-95304357D01*
X158079184Y-95212762D01*
X158053114Y-95136133D01*
X158038637Y-95056433D01*
X158032405Y-94955622D01*
X158031071Y-94815664D01*
X158031071Y-94813305D01*
X158031268Y-94793792D01*
X158550926Y-94793792D01*
X158570402Y-94970583D01*
X158641521Y-95139929D01*
X158764282Y-95293325D01*
X158889663Y-95387949D01*
X159056867Y-95455815D01*
X159232959Y-95474644D01*
X159407694Y-95444989D01*
X159570830Y-95367397D01*
X159712121Y-95242421D01*
X159787524Y-95134520D01*
X159853153Y-94966144D01*
X159870144Y-94790970D01*
X159840582Y-94618758D01*
X159766549Y-94459270D01*
X159650128Y-94322264D01*
X159493402Y-94217503D01*
X159444970Y-94196616D01*
X159267894Y-94157755D01*
X159087003Y-94169769D01*
X158914923Y-94230568D01*
X158764282Y-94338064D01*
X158666900Y-94451901D01*
X158583092Y-94618063D01*
X158550926Y-94793792D01*
X158031268Y-94793792D01*
X158032478Y-94673799D01*
X158038818Y-94573439D01*
X158053342Y-94494442D01*
X158079298Y-94419025D01*
X158119938Y-94329403D01*
X158140818Y-94287643D01*
X158282904Y-94070528D01*
X158461115Y-93888441D01*
X158667438Y-93748342D01*
X158893855Y-93657196D01*
X158947981Y-93643711D01*
X159194515Y-93616028D01*
X159437990Y-93639960D01*
G37*
G36*
X161529010Y-88626055D02*
G01*
X161732253Y-88700057D01*
X161914156Y-88814555D01*
X162064856Y-88964701D01*
X162174492Y-89145644D01*
X162227782Y-89266565D01*
X162586569Y-89267062D01*
X162819083Y-89273934D01*
X163108213Y-89307270D01*
X163361070Y-89371180D01*
X163586470Y-89468876D01*
X163793232Y-89603571D01*
X163990172Y-89778477D01*
X164068702Y-89860182D01*
X164219136Y-90040936D01*
X164332735Y-90222909D01*
X164415852Y-90419810D01*
X164474840Y-90645347D01*
X164516051Y-90913228D01*
X164524351Y-90978664D01*
X164562340Y-91183754D01*
X164616653Y-91344698D01*
X164692642Y-91471116D01*
X164795664Y-91572627D01*
X164931071Y-91658852D01*
X164936201Y-91661533D01*
X164971499Y-91676735D01*
X165015993Y-91688916D01*
X165076533Y-91698573D01*
X165159968Y-91706207D01*
X165273147Y-91712315D01*
X165422920Y-91717397D01*
X165616135Y-91721950D01*
X165859642Y-91726475D01*
X166688214Y-91740777D01*
X166696448Y-92006833D01*
X166704683Y-92272890D01*
X165782163Y-92264266D01*
X164859642Y-92255642D01*
X164698957Y-92176610D01*
X164570551Y-92103233D01*
X164377421Y-91948262D01*
X164216431Y-91760917D01*
X164093772Y-91550589D01*
X164015635Y-91326669D01*
X163988214Y-91098552D01*
X163983474Y-90980256D01*
X163935417Y-90713730D01*
X163838014Y-90470632D01*
X163694298Y-90255957D01*
X163507301Y-90074702D01*
X163280056Y-89931862D01*
X163225923Y-89905214D01*
X163151513Y-89871052D01*
X163085833Y-89847788D01*
X163015710Y-89832992D01*
X162927973Y-89824236D01*
X162809450Y-89819091D01*
X162646969Y-89815128D01*
X162231071Y-89805921D01*
X162175651Y-89943844D01*
X162169381Y-89958743D01*
X162082245Y-90103116D01*
X161956631Y-90241483D01*
X161808506Y-90358677D01*
X161653837Y-90439530D01*
X161602632Y-90457775D01*
X161502747Y-90483477D01*
X161396793Y-90493107D01*
X161259642Y-90489874D01*
X161134404Y-90476513D01*
X160914363Y-90413850D01*
X160725135Y-90303053D01*
X160567347Y-90144545D01*
X160441627Y-89938750D01*
X160379777Y-89757012D01*
X160358013Y-89576848D01*
X160887392Y-89576848D01*
X160935076Y-89716370D01*
X160944793Y-89735090D01*
X161040686Y-89860499D01*
X161164878Y-89936820D01*
X161315109Y-89962586D01*
X161332527Y-89962286D01*
X161478300Y-89932008D01*
X161594064Y-89854919D01*
X161675612Y-89735046D01*
X161718736Y-89576413D01*
X161722195Y-89532369D01*
X161699928Y-89393837D01*
X161625838Y-89278091D01*
X161501474Y-89187905D01*
X161389376Y-89144366D01*
X161245287Y-89133867D01*
X161112449Y-89179285D01*
X160992526Y-89280320D01*
X160954268Y-89328157D01*
X160893392Y-89450454D01*
X160887392Y-89576848D01*
X160358013Y-89576848D01*
X160354943Y-89551434D01*
X160370767Y-89347680D01*
X160427592Y-89164582D01*
X160531332Y-88987858D01*
X160688194Y-88819335D01*
X160879623Y-88695026D01*
X161101707Y-88618102D01*
X161314289Y-88597400D01*
X161529010Y-88626055D01*
G37*
G36*
X159941400Y-90533837D02*
G01*
X160069909Y-90541926D01*
X160166122Y-90558287D01*
X160253292Y-90588714D01*
X160354671Y-90638999D01*
X160535970Y-90759573D01*
X160682425Y-90916281D01*
X160792754Y-91113114D01*
X160859642Y-91267841D01*
X161360782Y-91268329D01*
X161370703Y-91268343D01*
X161636151Y-91273102D01*
X161854553Y-91288035D01*
X162035201Y-91315750D01*
X162187389Y-91358854D01*
X162320407Y-91419955D01*
X162443549Y-91501661D01*
X162566106Y-91606580D01*
X162616330Y-91655729D01*
X162754005Y-91823314D01*
X162853705Y-92009052D01*
X162920604Y-92224427D01*
X162959873Y-92480922D01*
X162962856Y-92509599D01*
X162998762Y-92705883D01*
X163060976Y-92860226D01*
X163155092Y-92982953D01*
X163286702Y-93084390D01*
X163426536Y-93170957D01*
X165050232Y-93178794D01*
X166673928Y-93186630D01*
X166673928Y-93457679D01*
X166673928Y-93728727D01*
X165093400Y-93728727D01*
X164767110Y-93728576D01*
X164467985Y-93727999D01*
X164216762Y-93726868D01*
X164008660Y-93725057D01*
X163838897Y-93722438D01*
X163702692Y-93718886D01*
X163595264Y-93714272D01*
X163511830Y-93708470D01*
X163447610Y-93701353D01*
X163397822Y-93692794D01*
X163357685Y-93682667D01*
X163309859Y-93667901D01*
X163129565Y-93596913D01*
X162975665Y-93504237D01*
X162823278Y-93375575D01*
X162764446Y-93317358D01*
X162624947Y-93147701D01*
X162525003Y-92964650D01*
X162458456Y-92754947D01*
X162419148Y-92505332D01*
X162388896Y-92324764D01*
X162325767Y-92156024D01*
X162227726Y-92021789D01*
X162089822Y-91913155D01*
X161950083Y-91826588D01*
X161404863Y-91818523D01*
X160859642Y-91810458D01*
X160792754Y-91966587D01*
X160784338Y-91985801D01*
X160673088Y-92178043D01*
X160527036Y-92328930D01*
X160337615Y-92447515D01*
X160285069Y-92472868D01*
X160196678Y-92509712D01*
X160115448Y-92530466D01*
X160019965Y-92539624D01*
X159888815Y-92541678D01*
X159881297Y-92541673D01*
X159746308Y-92538678D01*
X159646645Y-92527604D01*
X159561608Y-92504722D01*
X159470499Y-92466303D01*
X159288876Y-92360289D01*
X159120475Y-92205030D01*
X158985331Y-92005885D01*
X158980666Y-91997258D01*
X158937435Y-91913053D01*
X158910306Y-91843155D01*
X158895550Y-91769690D01*
X158889437Y-91674780D01*
X158888818Y-91605606D01*
X159415509Y-91605606D01*
X159455173Y-91746207D01*
X159538330Y-91868025D01*
X159572321Y-91901246D01*
X159664438Y-91969099D01*
X159766148Y-92003168D01*
X159900134Y-92012511D01*
X160014273Y-91998026D01*
X160151970Y-91936411D01*
X160261387Y-91834734D01*
X160333589Y-91702038D01*
X160359642Y-91547367D01*
X160358966Y-91519619D01*
X160326326Y-91360125D01*
X160248540Y-91226717D01*
X160130955Y-91129172D01*
X160085682Y-91107649D01*
X159941563Y-91073475D01*
X159788240Y-91076079D01*
X159651590Y-91116163D01*
X159537871Y-91201259D01*
X159458818Y-91320117D01*
X159417377Y-91459237D01*
X159415509Y-91605606D01*
X158888818Y-91605606D01*
X158888236Y-91540552D01*
X158888933Y-91441196D01*
X158893876Y-91332591D01*
X158906206Y-91252336D01*
X158928973Y-91183319D01*
X158965225Y-91108424D01*
X159015733Y-91019950D01*
X159165689Y-90824635D01*
X159345832Y-90676138D01*
X159559796Y-90571174D01*
X159628762Y-90551171D01*
X159759949Y-90534021D01*
X159931071Y-90533448D01*
X159941400Y-90533837D01*
G37*
G36*
X166702500Y-97561610D02*
G01*
X166702500Y-97847646D01*
X165909642Y-97848902D01*
X165886302Y-97848941D01*
X165636562Y-97849937D01*
X165436098Y-97852599D01*
X165277655Y-97857938D01*
X165153977Y-97866959D01*
X165057807Y-97880671D01*
X164981888Y-97900082D01*
X164918964Y-97926200D01*
X164861780Y-97960031D01*
X164803078Y-98002585D01*
X164720423Y-98075813D01*
X164644178Y-98176496D01*
X164587653Y-98301984D01*
X164546237Y-98462977D01*
X164515319Y-98670173D01*
X164499406Y-98791975D01*
X164476871Y-98933034D01*
X164453588Y-99051558D01*
X164432646Y-99130340D01*
X164419033Y-99167623D01*
X164283315Y-99447902D01*
X164101129Y-99697346D01*
X163875936Y-99912576D01*
X163611194Y-100090211D01*
X163310365Y-100226870D01*
X163303300Y-100229400D01*
X163224028Y-100253418D01*
X163134508Y-100271135D01*
X163023017Y-100283934D01*
X162877834Y-100293194D01*
X162687235Y-100300297D01*
X162229114Y-100313975D01*
X162178732Y-100435924D01*
X162083152Y-100605216D01*
X161933025Y-100761524D01*
X161737615Y-100885578D01*
X161735763Y-100886490D01*
X161628210Y-100935753D01*
X161539472Y-100963839D01*
X161444286Y-100976362D01*
X161317386Y-100978935D01*
X161251270Y-100977948D01*
X161130618Y-100968564D01*
X161031004Y-100945366D01*
X160927642Y-100903560D01*
X160776377Y-100819019D01*
X160595903Y-100665367D01*
X160457873Y-100473559D01*
X160422396Y-100405864D01*
X160396286Y-100339446D01*
X160381685Y-100267001D01*
X160375322Y-100171477D01*
X160374421Y-100083806D01*
X160879737Y-100083806D01*
X160887068Y-100153271D01*
X160919312Y-100244271D01*
X160951417Y-100312364D01*
X161010839Y-100386390D01*
X161102727Y-100445263D01*
X161226448Y-100490091D01*
X161371792Y-100496425D01*
X161503905Y-100453882D01*
X161613120Y-100365907D01*
X161689770Y-100235949D01*
X161700205Y-100205817D01*
X161722569Y-100058621D01*
X161699863Y-99921037D01*
X161635770Y-99805179D01*
X161533971Y-99723165D01*
X161503264Y-99708617D01*
X161349336Y-99668559D01*
X161202909Y-99680952D01*
X161072988Y-99741950D01*
X160968578Y-99847711D01*
X160898683Y-99994389D01*
X160894945Y-100007147D01*
X160879737Y-100083806D01*
X160374421Y-100083806D01*
X160373928Y-100035822D01*
X160374201Y-99972987D01*
X160378083Y-99850851D01*
X160388634Y-99763033D01*
X160408479Y-99693289D01*
X160440244Y-99625377D01*
X160445751Y-99615197D01*
X160569376Y-99436777D01*
X160725686Y-99283400D01*
X160898456Y-99171149D01*
X160918075Y-99161628D01*
X161003643Y-99125323D01*
X161085010Y-99104179D01*
X161182587Y-99094328D01*
X161316785Y-99091903D01*
X161451061Y-99094496D01*
X161551465Y-99104770D01*
X161633390Y-99126149D01*
X161716333Y-99162056D01*
X161765689Y-99188794D01*
X161925719Y-99307875D01*
X162065299Y-99458928D01*
X162166210Y-99623274D01*
X162230737Y-99764088D01*
X162590004Y-99764088D01*
X162781879Y-99760160D01*
X162969942Y-99743588D01*
X163125732Y-99711394D01*
X163262261Y-99660734D01*
X163392546Y-99588766D01*
X163577827Y-99446016D01*
X163751449Y-99248478D01*
X163880352Y-99021292D01*
X163960590Y-98771632D01*
X163988214Y-98506670D01*
X163996783Y-98399540D01*
X164033861Y-98227934D01*
X164093816Y-98051953D01*
X164169589Y-97895383D01*
X164266453Y-97761106D01*
X164423190Y-97606315D01*
X164607879Y-97471223D01*
X164804620Y-97367159D01*
X164997516Y-97305451D01*
X164998097Y-97305338D01*
X165058829Y-97298991D01*
X165167758Y-97293064D01*
X165316095Y-97287815D01*
X165495049Y-97283500D01*
X165695828Y-97280379D01*
X165909642Y-97278708D01*
X166702500Y-97275574D01*
X166702500Y-97561610D01*
G37*
G36*
X159112234Y-86878784D02*
G01*
X159318006Y-86941509D01*
X159503155Y-87045690D01*
X159658704Y-87188082D01*
X159775677Y-87365443D01*
X159852062Y-87521745D01*
X161974768Y-87521745D01*
X162321786Y-87521778D01*
X162704717Y-87522069D01*
X163038089Y-87522918D01*
X163326104Y-87524622D01*
X163572964Y-87527480D01*
X163782870Y-87531788D01*
X163960025Y-87537846D01*
X164108630Y-87545951D01*
X164232888Y-87556402D01*
X164337001Y-87569495D01*
X164425169Y-87585530D01*
X164501596Y-87604804D01*
X164570484Y-87627616D01*
X164636034Y-87654262D01*
X164702448Y-87685042D01*
X164773928Y-87720253D01*
X164919832Y-87798948D01*
X165196734Y-87990599D01*
X165427526Y-88215374D01*
X165612694Y-88474026D01*
X165752727Y-88767308D01*
X165848112Y-89095974D01*
X165899335Y-89460778D01*
X165905699Y-89536526D01*
X165931918Y-89742909D01*
X165971328Y-89909975D01*
X166028940Y-90051019D01*
X166109768Y-90179338D01*
X166218824Y-90308226D01*
X166309502Y-90397082D01*
X166426582Y-90492297D01*
X166530340Y-90556192D01*
X166673928Y-90624440D01*
X166673928Y-90905651D01*
X166674164Y-90992754D01*
X166671655Y-91090355D01*
X166658338Y-91147929D01*
X166625916Y-91168864D01*
X166566094Y-91156552D01*
X166470578Y-91114381D01*
X166331071Y-91045740D01*
X166204218Y-90973631D01*
X166009036Y-90828600D01*
X165824835Y-90654098D01*
X165666404Y-90464690D01*
X165548530Y-90274944D01*
X165466938Y-90089187D01*
X165386760Y-89802659D01*
X165360065Y-89508555D01*
X165349222Y-89331795D01*
X165290635Y-89060999D01*
X165184987Y-88809614D01*
X165036504Y-88584934D01*
X164849413Y-88394258D01*
X164627942Y-88244879D01*
X164573047Y-88215654D01*
X164516984Y-88186968D01*
X164462419Y-88162180D01*
X164405164Y-88141006D01*
X164341028Y-88123161D01*
X164265825Y-88108361D01*
X164175364Y-88096321D01*
X164065459Y-88086757D01*
X163931919Y-88079384D01*
X163770557Y-88073917D01*
X163577184Y-88070072D01*
X163347610Y-88067564D01*
X163077649Y-88066109D01*
X162763110Y-88065422D01*
X162399806Y-88065219D01*
X161983548Y-88065214D01*
X159848031Y-88065214D01*
X159791572Y-88192993D01*
X159742894Y-88284303D01*
X159620570Y-88442119D01*
X159466883Y-88579349D01*
X159298240Y-88679803D01*
X159261185Y-88696150D01*
X159175535Y-88728742D01*
X159097279Y-88745659D01*
X159004994Y-88750267D01*
X158877260Y-88745930D01*
X158780053Y-88737639D01*
X158563916Y-88687713D01*
X158381889Y-88593615D01*
X158229083Y-88452290D01*
X158100614Y-88260686D01*
X158058332Y-88179632D01*
X158027726Y-88105878D01*
X158010968Y-88031999D01*
X158003940Y-87938974D01*
X158002521Y-87807782D01*
X158003265Y-87761641D01*
X158531071Y-87761641D01*
X158532872Y-87805869D01*
X158566960Y-87948701D01*
X158637035Y-88062316D01*
X158733594Y-88143981D01*
X158847134Y-88190962D01*
X158968151Y-88200526D01*
X159087141Y-88169937D01*
X159194601Y-88096463D01*
X159281027Y-87977370D01*
X159317352Y-87878536D01*
X159331004Y-87741098D01*
X159308163Y-87609820D01*
X159251907Y-87499409D01*
X159165314Y-87424569D01*
X159029453Y-87374385D01*
X158877987Y-87366653D01*
X158739057Y-87411720D01*
X158619688Y-87508504D01*
X158611768Y-87517627D01*
X158560462Y-87588588D01*
X158536800Y-87660679D01*
X158531071Y-87761641D01*
X158003265Y-87761641D01*
X158004545Y-87682302D01*
X158013758Y-87570635D01*
X158032989Y-87482756D01*
X158065005Y-87400622D01*
X158140563Y-87273247D01*
X158264985Y-87129217D01*
X158410992Y-87008193D01*
X158561430Y-86926559D01*
X158674720Y-86890681D01*
X158894813Y-86860760D01*
X159112234Y-86878784D01*
G37*
G36*
X166673928Y-96174336D02*
G01*
X166673928Y-96446070D01*
X165087296Y-96446070D01*
X164791962Y-96446193D01*
X164487564Y-96446731D01*
X164231940Y-96447804D01*
X164020532Y-96449532D01*
X163848785Y-96452033D01*
X163712141Y-96455423D01*
X163606044Y-96459822D01*
X163525935Y-96465347D01*
X163467259Y-96472117D01*
X163425459Y-96480248D01*
X163395977Y-96489860D01*
X163286979Y-96543961D01*
X163154275Y-96647462D01*
X163057927Y-96782539D01*
X162993492Y-96956119D01*
X162956529Y-97175128D01*
X162944180Y-97275061D01*
X162888168Y-97523041D01*
X162796154Y-97735389D01*
X162662952Y-97922171D01*
X162483374Y-98093453D01*
X162438576Y-98129208D01*
X162340053Y-98199585D01*
X162242536Y-98253291D01*
X162136340Y-98292748D01*
X162011780Y-98320375D01*
X161859172Y-98338593D01*
X161668830Y-98349824D01*
X161431071Y-98356488D01*
X160859642Y-98367687D01*
X160791683Y-98522742D01*
X160779137Y-98549489D01*
X160680336Y-98700606D01*
X160544297Y-98844262D01*
X160387123Y-98965496D01*
X160224916Y-99049345D01*
X160174195Y-99067423D01*
X160074306Y-99093142D01*
X159968298Y-99102787D01*
X159831071Y-99099559D01*
X159724710Y-99089190D01*
X159495922Y-99029442D01*
X159295934Y-98920361D01*
X159125489Y-98762424D01*
X158985331Y-98556110D01*
X158980694Y-98547536D01*
X158937452Y-98463313D01*
X158910314Y-98393402D01*
X158895549Y-98319927D01*
X158889426Y-98225011D01*
X158888464Y-98118449D01*
X159414446Y-98118449D01*
X159436243Y-98264642D01*
X159495072Y-98387058D01*
X159530863Y-98429154D01*
X159650186Y-98516207D01*
X159789680Y-98560977D01*
X159936835Y-98564292D01*
X160079136Y-98526980D01*
X160204072Y-98449870D01*
X160299131Y-98333792D01*
X160339204Y-98242674D01*
X160362597Y-98087301D01*
X160334359Y-97935634D01*
X160257070Y-97797782D01*
X160133309Y-97683856D01*
X160026503Y-97635225D01*
X159883504Y-97618303D01*
X159737508Y-97642119D01*
X159605008Y-97703640D01*
X159502500Y-97799833D01*
X159480956Y-97833044D01*
X159429433Y-97968057D01*
X159414446Y-98118449D01*
X158888464Y-98118449D01*
X158888214Y-98090777D01*
X158888219Y-98077112D01*
X158889709Y-97947000D01*
X158896434Y-97854654D01*
X158912126Y-97782198D01*
X158940514Y-97711753D01*
X158985331Y-97625444D01*
X159102558Y-97447853D01*
X159266541Y-97287684D01*
X159470499Y-97165026D01*
X159474270Y-97163261D01*
X159564936Y-97125438D01*
X159650308Y-97103062D01*
X159751147Y-97092388D01*
X159888214Y-97089670D01*
X159898854Y-97089680D01*
X160032482Y-97092786D01*
X160131412Y-97104060D01*
X160216547Y-97127314D01*
X160308795Y-97166359D01*
X160354015Y-97189242D01*
X160532685Y-97314426D01*
X160683083Y-97475978D01*
X160791009Y-97659382D01*
X160859642Y-97818066D01*
X161377808Y-97818555D01*
X161432581Y-97818598D01*
X161603209Y-97818266D01*
X161729503Y-97816255D01*
X161821556Y-97811375D01*
X161889463Y-97802433D01*
X161943316Y-97788239D01*
X161993210Y-97767602D01*
X162049237Y-97739332D01*
X162161171Y-97664173D01*
X162273639Y-97550196D01*
X162357166Y-97421850D01*
X162399072Y-97295230D01*
X162399743Y-97290409D01*
X162410085Y-97212900D01*
X162424286Y-97102871D01*
X162439481Y-96982496D01*
X162448930Y-96919340D01*
X162489226Y-96748194D01*
X162544049Y-96603505D01*
X162565704Y-96561423D01*
X162708043Y-96353028D01*
X162889558Y-96174766D01*
X163099719Y-96035492D01*
X163327999Y-95944061D01*
X163373349Y-95935695D01*
X163447611Y-95928444D01*
X163553984Y-95922335D01*
X163696043Y-95917287D01*
X163877365Y-95913219D01*
X164101525Y-95910053D01*
X164372098Y-95907707D01*
X164692659Y-95906103D01*
X165066785Y-95905159D01*
X166673928Y-95902601D01*
X166673928Y-96174336D01*
G37*
G36*
X166651364Y-98485824D02*
G01*
X166664444Y-98529722D01*
X166671649Y-98617527D01*
X166673821Y-98755811D01*
X166673714Y-99034696D01*
X166551731Y-99084902D01*
X166465806Y-99127084D01*
X166297327Y-99250284D01*
X166147778Y-99413793D01*
X166028523Y-99606289D01*
X166017106Y-99629570D01*
X165974617Y-99722544D01*
X165945655Y-99804937D01*
X165926296Y-99893686D01*
X165912616Y-100005727D01*
X165900690Y-100157998D01*
X165892961Y-100261377D01*
X165874351Y-100446122D01*
X165849631Y-100597199D01*
X165815052Y-100730599D01*
X165766865Y-100862317D01*
X165701320Y-101008345D01*
X165695128Y-101021233D01*
X165523362Y-101311936D01*
X165309201Y-101566058D01*
X165056883Y-101779981D01*
X164770646Y-101950087D01*
X164454729Y-102072756D01*
X164433139Y-102078709D01*
X164394324Y-102087169D01*
X164346317Y-102094535D01*
X164285123Y-102100903D01*
X164206746Y-102106372D01*
X164107190Y-102111041D01*
X163982459Y-102115006D01*
X163828556Y-102118367D01*
X163641487Y-102121222D01*
X163417255Y-102123668D01*
X163151864Y-102125804D01*
X162841318Y-102127728D01*
X162481621Y-102129538D01*
X162068778Y-102131331D01*
X159849342Y-102140488D01*
X159784560Y-102274458D01*
X159773527Y-102296276D01*
X159661593Y-102458903D01*
X159512687Y-102603295D01*
X159344611Y-102711758D01*
X159327987Y-102719806D01*
X159250342Y-102751555D01*
X159170490Y-102770402D01*
X159070157Y-102779442D01*
X158931071Y-102781768D01*
X158882348Y-102781255D01*
X158690553Y-102764713D01*
X158533098Y-102720471D01*
X158394404Y-102642579D01*
X158258890Y-102525088D01*
X158258615Y-102524812D01*
X158137363Y-102383056D01*
X158058349Y-102236584D01*
X158015439Y-102069635D01*
X158002984Y-101874048D01*
X158531071Y-101874048D01*
X158532035Y-101932353D01*
X158542995Y-102008663D01*
X158574852Y-102068285D01*
X158638214Y-102137279D01*
X158690843Y-102184577D01*
X158814006Y-102253994D01*
X158943623Y-102268045D01*
X159085871Y-102227982D01*
X159091071Y-102225653D01*
X159212378Y-102148313D01*
X159287561Y-102042819D01*
X159323490Y-101899683D01*
X159325192Y-101842076D01*
X159298352Y-101708535D01*
X159236538Y-101587309D01*
X159149014Y-101499635D01*
X159093677Y-101468623D01*
X158959198Y-101432177D01*
X158829027Y-101444595D01*
X158712146Y-101500434D01*
X158617537Y-101594251D01*
X158554185Y-101720603D01*
X158531071Y-101874048D01*
X158002984Y-101874048D01*
X158002500Y-101866453D01*
X158002502Y-101860659D01*
X158005430Y-101725270D01*
X158016366Y-101625667D01*
X158039000Y-101541320D01*
X158077019Y-101451700D01*
X158145180Y-101330606D01*
X158288822Y-101159161D01*
X158463914Y-101027109D01*
X158662084Y-100938894D01*
X158874958Y-100898961D01*
X159094165Y-100911754D01*
X159285433Y-100964858D01*
X159480065Y-101068562D01*
X159638746Y-101216625D01*
X159762142Y-101409543D01*
X159853201Y-101594718D01*
X161986133Y-101594718D01*
X162199052Y-101594686D01*
X162581334Y-101594400D01*
X162912463Y-101593755D01*
X163196424Y-101592677D01*
X163437203Y-101591088D01*
X163638783Y-101588914D01*
X163805150Y-101586078D01*
X163940288Y-101582505D01*
X164048184Y-101578118D01*
X164132820Y-101572842D01*
X164198183Y-101566601D01*
X164248257Y-101559319D01*
X164287027Y-101550921D01*
X164519792Y-101468725D01*
X164758632Y-101331556D01*
X164963616Y-101153822D01*
X165130477Y-100941102D01*
X165254946Y-100698973D01*
X165332757Y-100433013D01*
X165359642Y-100148802D01*
X165361363Y-100075173D01*
X165402296Y-99777626D01*
X165494416Y-99489021D01*
X165633323Y-99220622D01*
X165814619Y-98983693D01*
X165830834Y-98966308D01*
X166008787Y-98798180D01*
X166195812Y-98667674D01*
X166414502Y-98558789D01*
X166419721Y-98556565D01*
X166517207Y-98517026D01*
X166595550Y-98488739D01*
X166638214Y-98477700D01*
X166651364Y-98485824D01*
G37*
G36*
X169059082Y-86498711D02*
G01*
X169239783Y-86512282D01*
X169388214Y-86536530D01*
X169416622Y-86543798D01*
X169540634Y-86583434D01*
X169682495Y-86637667D01*
X169816785Y-86696979D01*
X169827591Y-86702246D01*
X170024820Y-86820905D01*
X170221837Y-86977466D01*
X170404968Y-87158493D01*
X170560538Y-87350549D01*
X170674874Y-87540197D01*
X170773928Y-87744572D01*
X171031071Y-87730429D01*
X171058425Y-87729134D01*
X171374378Y-87744289D01*
X171680981Y-87812594D01*
X171972076Y-87930368D01*
X172241506Y-88093929D01*
X172483113Y-88299600D01*
X172690742Y-88543698D01*
X172858233Y-88822544D01*
X172955869Y-89058911D01*
X173022996Y-89339055D01*
X173044934Y-89642585D01*
X173045357Y-89889889D01*
X172638214Y-89875212D01*
X172536381Y-89872569D01*
X172173434Y-89882789D01*
X171848987Y-89925933D01*
X171555937Y-90002839D01*
X171459569Y-90045675D01*
X171385714Y-90113044D01*
X171366490Y-90193723D01*
X171402674Y-90286274D01*
X171413822Y-90302678D01*
X171449928Y-90339119D01*
X171499528Y-90350932D01*
X171583931Y-90345025D01*
X171679859Y-90330951D01*
X171804727Y-90308494D01*
X171931071Y-90282575D01*
X172113431Y-90253034D01*
X172349271Y-90236448D01*
X172594184Y-90237942D01*
X172827002Y-90257289D01*
X173026555Y-90294265D01*
X173332929Y-90398747D01*
X173615231Y-90549937D01*
X173860063Y-90743670D01*
X174066090Y-90978884D01*
X174231980Y-91254516D01*
X174320640Y-91457353D01*
X174383378Y-91665895D01*
X174417906Y-91886946D01*
X174428822Y-92141227D01*
X174425186Y-92289768D01*
X174393418Y-92554189D01*
X174324981Y-92799038D01*
X174215039Y-93039324D01*
X174058757Y-93290056D01*
X173936429Y-93466362D01*
X174008353Y-93533187D01*
X174114153Y-93646697D01*
X174230819Y-93798974D01*
X174340727Y-93967012D01*
X174430265Y-94131509D01*
X174531868Y-94391956D01*
X174599941Y-94703487D01*
X174616810Y-95020222D01*
X174583874Y-95334976D01*
X174502533Y-95640565D01*
X174374190Y-95929805D01*
X174200242Y-96195513D01*
X173982093Y-96430503D01*
X173807557Y-96588626D01*
X173911095Y-96810535D01*
X173991177Y-96998053D01*
X174056527Y-97206587D01*
X174091883Y-97415847D01*
X174102500Y-97648855D01*
X174085997Y-97932032D01*
X174023694Y-98233860D01*
X173912467Y-98512080D01*
X173749627Y-98773180D01*
X173532483Y-99023645D01*
X173488156Y-99067918D01*
X173372393Y-99176698D01*
X173270041Y-99258373D01*
X173163872Y-99325728D01*
X173036654Y-99391547D01*
X172967227Y-99424511D01*
X172871335Y-99467835D01*
X172803678Y-99495532D01*
X172775737Y-99502710D01*
X172771077Y-99492316D01*
X172752185Y-99437650D01*
X172723396Y-99347640D01*
X172688810Y-99234921D01*
X172654220Y-99125839D01*
X172597723Y-98964204D01*
X172536717Y-98804682D01*
X172475612Y-98657740D01*
X172418817Y-98533843D01*
X172370743Y-98443459D01*
X172335799Y-98397053D01*
X172333171Y-98395058D01*
X172253659Y-98367857D01*
X172168215Y-98389000D01*
X172093263Y-98454589D01*
X172035517Y-98532366D01*
X172139673Y-98754927D01*
X172239595Y-98988761D01*
X172353854Y-99330929D01*
X172431565Y-99670801D01*
X172471291Y-99999335D01*
X172471592Y-100307491D01*
X172431030Y-100586227D01*
X172389994Y-100733776D01*
X172268183Y-101029830D01*
X172102474Y-101303363D01*
X171898922Y-101546579D01*
X171663579Y-101751682D01*
X171402500Y-101910874D01*
X171313768Y-101953096D01*
X171120397Y-102031375D01*
X170940476Y-102079462D01*
X170752631Y-102102119D01*
X170535487Y-102104113D01*
X170239902Y-102095761D01*
X170195730Y-102181332D01*
X170093147Y-102346211D01*
X169918424Y-102548116D01*
X169705303Y-102731398D01*
X169464199Y-102888489D01*
X169205532Y-103011821D01*
X168939716Y-103093826D01*
X168903880Y-103101339D01*
X168654721Y-103132679D01*
X168401726Y-103131510D01*
X168153339Y-103100409D01*
X167918007Y-103041954D01*
X167704177Y-102958723D01*
X167520294Y-102853293D01*
X167374804Y-102728241D01*
X167276154Y-102586146D01*
X167216785Y-102463368D01*
X167216785Y-102045145D01*
X167731071Y-102045145D01*
X167751948Y-102120972D01*
X167818477Y-102187367D01*
X167934464Y-102245538D01*
X168103710Y-102298063D01*
X168115102Y-102300899D01*
X168334513Y-102325624D01*
X168562847Y-102299448D01*
X168790781Y-102225350D01*
X169008990Y-102106307D01*
X169208149Y-101945298D01*
X169239391Y-101914430D01*
X169344926Y-101800085D01*
X169445426Y-101672593D01*
X169547733Y-101522077D01*
X169658690Y-101338660D01*
X169785140Y-101112464D01*
X169874143Y-100950828D01*
X169976369Y-100772728D01*
X170064257Y-100630960D01*
X170143639Y-100516734D01*
X170220342Y-100421258D01*
X170300196Y-100335742D01*
X170344054Y-100294007D01*
X170516925Y-100164593D01*
X170700614Y-100075354D01*
X170885802Y-100028921D01*
X171063167Y-100027928D01*
X171223391Y-100075005D01*
X171263266Y-100093063D01*
X171347388Y-100123786D01*
X171407092Y-100135935D01*
X171422731Y-100134952D01*
X171495289Y-100100606D01*
X171542846Y-100028194D01*
X171554509Y-99932731D01*
X171553781Y-99925798D01*
X171537852Y-99865296D01*
X171497046Y-99819997D01*
X171416785Y-99772991D01*
X171383914Y-99756962D01*
X171162166Y-99684427D01*
X170929603Y-99666883D01*
X170690171Y-99704236D01*
X170447810Y-99796389D01*
X170326970Y-99868612D01*
X170169580Y-99991002D01*
X170010717Y-100140550D01*
X169863870Y-100304380D01*
X169742525Y-100469618D01*
X169628953Y-100645981D01*
X169548588Y-100492313D01*
X169494722Y-100401160D01*
X169390007Y-100270997D01*
X169253373Y-100150323D01*
X169076751Y-100032396D01*
X168852071Y-99910475D01*
X168717116Y-99839067D01*
X168534562Y-99723592D01*
X168400879Y-99607738D01*
X168311297Y-99485936D01*
X168261047Y-99352617D01*
X168245357Y-99202213D01*
X168241425Y-99176746D01*
X169502500Y-99176746D01*
X169515188Y-99234436D01*
X169567596Y-99296079D01*
X169644832Y-99329303D01*
X169729667Y-99327901D01*
X169804872Y-99285667D01*
X169808065Y-99282344D01*
X169854577Y-99216227D01*
X169911944Y-99111401D01*
X169973629Y-98982270D01*
X170033095Y-98843235D01*
X170083806Y-98708700D01*
X170119224Y-98593067D01*
X170139766Y-98492761D01*
X170155526Y-98325401D01*
X170154561Y-98121108D01*
X170151192Y-98045651D01*
X170141361Y-97922323D01*
X170123981Y-97825577D01*
X170094620Y-97734790D01*
X170079665Y-97700340D01*
X172255245Y-97700340D01*
X172269038Y-97748211D01*
X172272940Y-97756087D01*
X172334167Y-97816872D01*
X172421722Y-97842204D01*
X172514301Y-97825380D01*
X172521396Y-97821495D01*
X172572327Y-97770058D01*
X172634050Y-97678790D01*
X172700156Y-97559979D01*
X172764237Y-97425911D01*
X172819886Y-97288875D01*
X172860693Y-97161160D01*
X172890984Y-97012038D01*
X172909441Y-96809028D01*
X172906486Y-96603151D01*
X172883610Y-96406076D01*
X172842302Y-96229470D01*
X172784054Y-96085002D01*
X172710357Y-95984340D01*
X172695096Y-95970460D01*
X172615709Y-95911181D01*
X172549586Y-95893152D01*
X172480450Y-95911193D01*
X172432770Y-95943320D01*
X172400161Y-96011812D01*
X172408576Y-96111343D01*
X172457695Y-96246630D01*
X172539957Y-96495857D01*
X172568269Y-96756213D01*
X172541606Y-97020153D01*
X172460407Y-97283387D01*
X172325111Y-97541624D01*
X172302388Y-97578013D01*
X172264749Y-97649550D01*
X172255245Y-97700340D01*
X170079665Y-97700340D01*
X170048843Y-97629338D01*
X170010584Y-97552164D01*
X169943375Y-97445952D01*
X169884191Y-97393358D01*
X169876054Y-97389663D01*
X169812194Y-97365804D01*
X169766414Y-97370508D01*
X169708857Y-97405912D01*
X169680444Y-97431703D01*
X169648216Y-97513063D01*
X169662691Y-97625513D01*
X169723906Y-97769937D01*
X169751975Y-97825999D01*
X169778722Y-97895305D01*
X169793983Y-97970129D01*
X169800866Y-98067685D01*
X169802478Y-98205191D01*
X169802000Y-98262252D01*
X169789532Y-98455114D01*
X169755815Y-98619499D01*
X169695047Y-98776865D01*
X169601425Y-98948669D01*
X169554188Y-99034973D01*
X169516820Y-99120076D01*
X169502500Y-99176746D01*
X168241425Y-99176746D01*
X168234649Y-99132860D01*
X168200879Y-99055362D01*
X168182919Y-99034751D01*
X168107632Y-98996742D01*
X168020182Y-98998103D01*
X167943928Y-99040212D01*
X167942264Y-99041932D01*
X167910885Y-99111951D01*
X167903853Y-99219244D01*
X167919621Y-99350610D01*
X167956642Y-99492849D01*
X168013369Y-99632760D01*
X168064279Y-99725797D01*
X168171558Y-99870722D01*
X168309330Y-99999019D01*
X168486367Y-100118271D01*
X168711446Y-100236060D01*
X168895012Y-100330939D01*
X169065457Y-100443731D01*
X169188896Y-100562895D01*
X169270656Y-100695233D01*
X169316063Y-100847551D01*
X169330443Y-101026651D01*
X169330421Y-101062588D01*
X169326086Y-101154164D01*
X169309312Y-101223356D01*
X169272410Y-101292567D01*
X169207687Y-101384196D01*
X169118032Y-101496582D01*
X168964421Y-101656666D01*
X168804848Y-101789212D01*
X168653358Y-101881617D01*
X168517422Y-101927860D01*
X168357893Y-101949044D01*
X168203917Y-101940551D01*
X168076681Y-101901646D01*
X168016072Y-101875473D01*
X167902321Y-101855081D01*
X167812043Y-101878580D01*
X167752529Y-101942944D01*
X167731071Y-102045145D01*
X167216785Y-102045145D01*
X167216785Y-97716565D01*
X168762599Y-97716565D01*
X168764655Y-97786770D01*
X168780473Y-97832967D01*
X168813031Y-97872492D01*
X168815895Y-97875319D01*
X168898803Y-97926426D01*
X168980681Y-97926112D01*
X169053383Y-97879497D01*
X169108760Y-97791702D01*
X169138664Y-97667847D01*
X169169965Y-97459103D01*
X169245660Y-97170571D01*
X169353588Y-96902535D01*
X169488948Y-96666279D01*
X169646939Y-96473089D01*
X169675566Y-96444731D01*
X169751728Y-96372388D01*
X169809520Y-96322001D01*
X169838214Y-96303103D01*
X169852452Y-96309441D01*
X169905643Y-96343322D01*
X169986554Y-96399879D01*
X170084264Y-96471633D01*
X170302153Y-96620987D01*
X170640952Y-96803548D01*
X170991752Y-96937010D01*
X171347601Y-97018899D01*
X171701547Y-97046745D01*
X171794977Y-97046303D01*
X171871102Y-97042001D01*
X171914841Y-97029213D01*
X171939947Y-97003305D01*
X171960176Y-96959646D01*
X171981369Y-96877710D01*
X171964614Y-96803115D01*
X171956957Y-96787526D01*
X171932162Y-96754640D01*
X171892492Y-96731624D01*
X171827390Y-96715418D01*
X171726304Y-96702961D01*
X171578678Y-96691193D01*
X171532962Y-96687498D01*
X171177963Y-96627743D01*
X170831138Y-96512621D01*
X170798364Y-96498229D01*
X170702426Y-96450805D01*
X170591096Y-96390561D01*
X170475365Y-96324079D01*
X170366221Y-96257944D01*
X170274655Y-96198739D01*
X170211656Y-96153048D01*
X170188214Y-96127456D01*
X170197731Y-96118681D01*
X170249586Y-96087306D01*
X170338927Y-96038757D01*
X170457077Y-95977696D01*
X170595357Y-95908783D01*
X170852415Y-95776918D01*
X171133764Y-95613804D01*
X171364577Y-95454677D01*
X171548196Y-95296921D01*
X171687962Y-95137917D01*
X171787216Y-94975048D01*
X171800708Y-94946631D01*
X171828822Y-94874216D01*
X171831535Y-94821791D01*
X171811495Y-94766637D01*
X171763626Y-94704304D01*
X171683428Y-94678176D01*
X171664334Y-94676606D01*
X171621710Y-94678949D01*
X171584517Y-94697368D01*
X171544125Y-94740154D01*
X171491903Y-94815599D01*
X171419222Y-94931993D01*
X171414912Y-94938907D01*
X171348415Y-95027138D01*
X171257879Y-95116517D01*
X171138428Y-95210290D01*
X170985185Y-95311702D01*
X170793272Y-95423999D01*
X170557812Y-95550427D01*
X170273928Y-95694232D01*
X170147734Y-95756882D01*
X169970194Y-95845824D01*
X169831410Y-95917403D01*
X169723491Y-95976544D01*
X169638549Y-96028173D01*
X169568694Y-96077214D01*
X169506035Y-96128594D01*
X169442685Y-96187236D01*
X169370752Y-96258068D01*
X169258378Y-96374813D01*
X169165438Y-96486785D01*
X169090979Y-96600058D01*
X169021016Y-96733650D01*
X168912859Y-96994005D01*
X168820633Y-97310494D01*
X168769820Y-97621020D01*
X168762599Y-97716565D01*
X167216785Y-97716565D01*
X167216785Y-95039846D01*
X167744016Y-95039846D01*
X167789271Y-95134640D01*
X167884682Y-95237777D01*
X167943693Y-95284362D01*
X168101181Y-95363455D01*
X168268828Y-95388022D01*
X168443953Y-95358750D01*
X168623872Y-95276328D01*
X168805904Y-95141445D01*
X168987367Y-94954788D01*
X169115839Y-94809683D01*
X169223714Y-94703835D01*
X169315536Y-94635123D01*
X169398774Y-94597979D01*
X169480896Y-94586836D01*
X169510247Y-94587440D01*
X169616000Y-94605467D01*
X169708868Y-94655590D01*
X169808186Y-94747287D01*
X169815757Y-94755194D01*
X169901601Y-94823202D01*
X169985137Y-94844268D01*
X169987217Y-94844254D01*
X170073474Y-94817516D01*
X170135716Y-94750028D01*
X170159642Y-94657129D01*
X170149170Y-94611873D01*
X170099576Y-94529834D01*
X170020591Y-94443001D01*
X169924895Y-94364612D01*
X169825171Y-94307910D01*
X169649634Y-94249535D01*
X169468388Y-94230484D01*
X169295677Y-94260772D01*
X169126551Y-94342086D01*
X168956065Y-94476112D01*
X168779270Y-94664538D01*
X168753801Y-94694486D01*
X168598773Y-94858388D01*
X168461333Y-94969433D01*
X168340311Y-95028591D01*
X168309595Y-95032305D01*
X168237115Y-95022253D01*
X168160066Y-94997016D01*
X168098865Y-94964078D01*
X168073928Y-94930925D01*
X168057830Y-94895922D01*
X168002372Y-94865922D01*
X167925809Y-94856239D01*
X167847594Y-94871944D01*
X167805841Y-94893727D01*
X167749384Y-94958005D01*
X167744016Y-95039846D01*
X167216785Y-95039846D01*
X167216785Y-94998173D01*
X167216785Y-93312095D01*
X167902500Y-93312095D01*
X167908264Y-93375134D01*
X167936201Y-93429031D01*
X167997673Y-93471787D01*
X168103906Y-93514697D01*
X168198264Y-93542830D01*
X168434311Y-93577892D01*
X168684860Y-93573271D01*
X168932456Y-93530049D01*
X169159642Y-93449307D01*
X169250113Y-93398522D01*
X169403973Y-93280838D01*
X169555518Y-93131132D01*
X169691594Y-92962968D01*
X169799050Y-92789911D01*
X169847733Y-92699727D01*
X169891995Y-92631183D01*
X169925635Y-92601034D01*
X169955133Y-92601456D01*
X169955362Y-92601557D01*
X169997146Y-92617368D01*
X170083535Y-92648280D01*
X170205175Y-92691008D01*
X170352710Y-92742264D01*
X170516785Y-92798763D01*
X170615434Y-92832695D01*
X170800797Y-92897581D01*
X170943007Y-92949901D01*
X171049802Y-92993196D01*
X171128918Y-93031007D01*
X171188095Y-93066876D01*
X171235070Y-93104343D01*
X171277580Y-93146951D01*
X171278306Y-93147738D01*
X171370643Y-93275040D01*
X171414093Y-93409077D01*
X171409986Y-93559403D01*
X171359657Y-93735572D01*
X171356063Y-93745081D01*
X171318077Y-93857967D01*
X171306012Y-93935541D01*
X171319867Y-93992456D01*
X171359642Y-94043367D01*
X171437885Y-94091720D01*
X171526535Y-94090814D01*
X171608226Y-94036216D01*
X171655613Y-93968785D01*
X171712582Y-93834085D01*
X171751462Y-93673520D01*
X171769570Y-93504812D01*
X171764222Y-93345685D01*
X171755895Y-93310822D01*
X172107380Y-93310822D01*
X172136955Y-93388296D01*
X172144946Y-93395930D01*
X172201555Y-93429741D01*
X172292570Y-93471069D01*
X172402500Y-93512658D01*
X172547550Y-93566619D01*
X172763012Y-93668690D01*
X172948294Y-93790620D01*
X173120401Y-93942592D01*
X173284873Y-94136507D01*
X173426658Y-94385710D01*
X173520182Y-94665495D01*
X173545557Y-94814714D01*
X173561798Y-95015746D01*
X173565062Y-95233046D01*
X173555101Y-95445754D01*
X173531668Y-95633011D01*
X173528145Y-95653102D01*
X173512832Y-95790728D01*
X173523481Y-95885188D01*
X173562452Y-95944561D01*
X173632104Y-95976926D01*
X173678942Y-95983726D01*
X173752934Y-95965802D01*
X173813401Y-95905492D01*
X173862367Y-95799157D01*
X173901854Y-95643154D01*
X173933886Y-95433845D01*
X173949323Y-95189876D01*
X173930061Y-94874447D01*
X173869910Y-94564715D01*
X173771908Y-94271616D01*
X173639091Y-94006088D01*
X173474494Y-93779066D01*
X173359605Y-93648398D01*
X173484188Y-93446103D01*
X173593358Y-93244936D01*
X173704550Y-92951522D01*
X173764778Y-92654102D01*
X173774495Y-92358450D01*
X173734151Y-92070339D01*
X173644197Y-91795545D01*
X173505084Y-91539841D01*
X173317263Y-91309001D01*
X173278472Y-91270496D01*
X173163905Y-91174161D01*
X173069029Y-91126553D01*
X172988963Y-91125980D01*
X172918826Y-91170748D01*
X172904347Y-91186721D01*
X172874374Y-91251707D01*
X172885908Y-91328187D01*
X172941115Y-91422674D01*
X173042159Y-91541682D01*
X173148480Y-91668494D01*
X173289696Y-91901889D01*
X173377394Y-92150887D01*
X173411264Y-92411873D01*
X173390997Y-92681232D01*
X173316284Y-92955350D01*
X173186814Y-93230613D01*
X173143729Y-93303342D01*
X173105137Y-93362704D01*
X173085404Y-93385484D01*
X173083395Y-93385071D01*
X173045798Y-93369113D01*
X172973216Y-93334631D01*
X172879127Y-93287993D01*
X172768774Y-93236912D01*
X172616791Y-93175414D01*
X172477179Y-93127078D01*
X172390925Y-93101198D01*
X172316511Y-93082344D01*
X172269066Y-93079468D01*
X172232993Y-93092192D01*
X172192695Y-93120134D01*
X172169180Y-93140776D01*
X172119606Y-93221175D01*
X172107380Y-93310822D01*
X171755895Y-93310822D01*
X171732735Y-93213863D01*
X171668948Y-93084437D01*
X171538440Y-92907792D01*
X171378914Y-92770750D01*
X171359351Y-92758663D01*
X171260196Y-92708069D01*
X171121464Y-92647771D01*
X170955002Y-92582714D01*
X170772658Y-92517839D01*
X170557347Y-92442910D01*
X170357616Y-92367426D01*
X170192452Y-92296345D01*
X170050842Y-92224489D01*
X169921776Y-92146680D01*
X169794241Y-92057739D01*
X169714867Y-91994521D01*
X169544346Y-91813084D01*
X169425266Y-91606743D01*
X169357633Y-91375507D01*
X169356537Y-91369175D01*
X169335453Y-91260598D01*
X169314119Y-91170794D01*
X169296993Y-91118649D01*
X169252172Y-91082609D01*
X169177327Y-91068838D01*
X169096491Y-91078998D01*
X169033112Y-91113541D01*
X169025594Y-91122139D01*
X168995087Y-91199973D01*
X168987482Y-91314445D01*
X169000896Y-91452929D01*
X169033443Y-91602799D01*
X169083239Y-91751425D01*
X169148400Y-91886182D01*
X169164308Y-91910920D01*
X169228976Y-91994638D01*
X169316298Y-92093779D01*
X169412025Y-92191826D01*
X169607413Y-92380670D01*
X169507098Y-92570913D01*
X169478456Y-92623332D01*
X169330843Y-92841185D01*
X169161372Y-93009942D01*
X168965502Y-93134328D01*
X168923812Y-93154570D01*
X168832146Y-93193928D01*
X168751310Y-93215563D01*
X168658685Y-93224176D01*
X168531650Y-93224465D01*
X168508859Y-93223948D01*
X168374674Y-93215203D01*
X168248205Y-93198769D01*
X168154154Y-93177706D01*
X168062707Y-93156555D01*
X167972904Y-93165159D01*
X167919901Y-93216792D01*
X167902500Y-93312095D01*
X167216785Y-93312095D01*
X167216785Y-90818937D01*
X170504885Y-90818937D01*
X170540186Y-90990225D01*
X170620378Y-91150001D01*
X170741242Y-91288266D01*
X170898561Y-91395021D01*
X170930386Y-91409866D01*
X171035506Y-91451761D01*
X171165977Y-91497302D01*
X171300770Y-91538963D01*
X171308045Y-91541049D01*
X171471094Y-91590243D01*
X171589544Y-91632777D01*
X171674234Y-91673877D01*
X171736004Y-91718765D01*
X171785691Y-91772667D01*
X171825484Y-91853206D01*
X171844990Y-91968286D01*
X171837019Y-92085051D01*
X171800635Y-92178117D01*
X171790159Y-92194683D01*
X171764223Y-92286550D01*
X171784380Y-92373734D01*
X171847336Y-92437910D01*
X171869907Y-92449208D01*
X171965349Y-92464926D01*
X172051430Y-92424693D01*
X172126519Y-92329143D01*
X172174566Y-92219690D01*
X172208183Y-92036645D01*
X172194121Y-91847572D01*
X172133904Y-91665396D01*
X172029056Y-91503043D01*
X172027739Y-91501505D01*
X171953494Y-91424204D01*
X171871677Y-91361678D01*
X171770174Y-91307430D01*
X171636868Y-91254966D01*
X171459642Y-91197791D01*
X171451611Y-91195345D01*
X171229210Y-91119092D01*
X171061566Y-91042096D01*
X170946385Y-90962281D01*
X170881372Y-90877573D01*
X170864230Y-90785896D01*
X170892666Y-90685176D01*
X170899930Y-90669010D01*
X170923834Y-90561676D01*
X170900026Y-90474460D01*
X170830412Y-90415613D01*
X170756845Y-90390497D01*
X170672901Y-90395635D01*
X170605002Y-90450960D01*
X170546288Y-90559960D01*
X170518693Y-90646138D01*
X170504885Y-90818937D01*
X167216785Y-90818937D01*
X167216785Y-90006600D01*
X168192604Y-90006600D01*
X168206107Y-90064608D01*
X168246470Y-90119280D01*
X168307236Y-90168933D01*
X168376299Y-90182324D01*
X168447473Y-90146320D01*
X168524514Y-90058847D01*
X168611176Y-89917831D01*
X168627394Y-89888595D01*
X168834138Y-89554608D01*
X169050634Y-89275595D01*
X169278410Y-89050023D01*
X169518998Y-88876359D01*
X169773928Y-88753070D01*
X169921949Y-88710754D01*
X170118937Y-88679942D01*
X170326523Y-88668442D01*
X170523655Y-88677300D01*
X170689282Y-88707563D01*
X170689939Y-88707753D01*
X170868270Y-88772130D01*
X171054869Y-88860852D01*
X171228213Y-88962539D01*
X171366780Y-89065811D01*
X171395511Y-89090648D01*
X171492030Y-89163322D01*
X171565959Y-89194300D01*
X171627720Y-89186021D01*
X171687738Y-89140926D01*
X171733027Y-89086572D01*
X171755917Y-89023603D01*
X171740817Y-88958187D01*
X171684469Y-88884499D01*
X171583613Y-88796710D01*
X171434991Y-88688995D01*
X171391987Y-88660133D01*
X171117223Y-88506885D01*
X170824693Y-88391714D01*
X170528323Y-88319229D01*
X170242041Y-88294043D01*
X170019294Y-88294043D01*
X169875835Y-88015158D01*
X169823323Y-87917206D01*
X169649278Y-87645818D01*
X169460892Y-87428998D01*
X169257376Y-87265939D01*
X169037941Y-87155829D01*
X168932471Y-87123788D01*
X168775265Y-87094575D01*
X168615443Y-87082151D01*
X168467264Y-87086676D01*
X168344991Y-87108308D01*
X168262885Y-87147205D01*
X168236144Y-87183169D01*
X168218260Y-87263512D01*
X168229420Y-87350158D01*
X168269035Y-87417200D01*
X168280917Y-87426593D01*
X168334219Y-87449058D01*
X168419698Y-87461014D01*
X168549660Y-87464538D01*
X168674576Y-87467880D01*
X168840719Y-87490269D01*
X168979913Y-87539775D01*
X169109399Y-87623417D01*
X169246417Y-87748214D01*
X169264071Y-87766507D01*
X169348140Y-87864599D01*
X169434417Y-87979915D01*
X169515083Y-88100270D01*
X169582319Y-88213480D01*
X169628309Y-88307363D01*
X169645234Y-88369735D01*
X169642981Y-88374464D01*
X169606271Y-88403935D01*
X169533934Y-88448528D01*
X169438091Y-88500587D01*
X169227219Y-88626235D01*
X168958183Y-88841221D01*
X168708372Y-89106166D01*
X168480628Y-89417952D01*
X168277792Y-89773464D01*
X168250927Y-89828093D01*
X168207147Y-89932135D01*
X168192604Y-90006600D01*
X167216785Y-90006600D01*
X167216785Y-87532978D01*
X167290240Y-87385406D01*
X167318256Y-87335433D01*
X167420584Y-87197806D01*
X167557898Y-87053371D01*
X167717662Y-86913490D01*
X167887341Y-86789523D01*
X168054400Y-86692832D01*
X168086161Y-86677555D01*
X168216935Y-86619619D01*
X168344556Y-86569606D01*
X168445357Y-86536952D01*
X168517215Y-86521965D01*
X168678414Y-86503561D01*
X168865498Y-86495806D01*
X169059082Y-86498711D01*
G37*
%TD*%
%LPC*%
D11*
%TO.C,H2*%
X188600000Y-91100000D03*
X189302944Y-89402944D03*
X189302944Y-92797056D03*
X191000000Y-88700000D03*
D12*
X191000000Y-91100000D03*
D11*
X191000000Y-93500000D03*
X192697056Y-89402944D03*
X192697056Y-92797056D03*
X193400000Y-91100000D03*
%TD*%
D13*
%TO.C,J3*%
X191100000Y-78300000D03*
X166100000Y-78300000D03*
D14*
X173060000Y-78600000D03*
D15*
X175830000Y-78600000D03*
X178600000Y-78600000D03*
X181370000Y-78600000D03*
X184140000Y-78600000D03*
X174445000Y-75760000D03*
X177215000Y-75760000D03*
X179985000Y-75760000D03*
X182755000Y-75760000D03*
%TD*%
D16*
%TO.C,J7*%
X166600000Y-143500000D03*
D17*
X168200000Y-145100000D03*
D18*
X168200000Y-147600000D03*
%TD*%
D16*
%TO.C,J8*%
X174100000Y-143500000D03*
D17*
X175700000Y-145100000D03*
D18*
X175700000Y-147600000D03*
%TD*%
D19*
%TO.C,J2*%
X138390000Y-145275000D03*
X144170000Y-145275000D03*
D20*
X136960000Y-144795000D03*
D21*
X136960000Y-148965000D03*
D20*
X145600000Y-144795000D03*
D21*
X145600000Y-148965000D03*
%TD*%
D22*
%TO.C,J5*%
X157300000Y-73300000D03*
D23*
X152300000Y-73300000D03*
X147300000Y-73300000D03*
%TD*%
D16*
%TO.C,J9*%
X181600000Y-143500000D03*
D17*
X183200000Y-145100000D03*
D18*
X183200000Y-147600000D03*
%TD*%
D24*
%TO.C,J4*%
X149900000Y-149100000D03*
D25*
X152440000Y-149100000D03*
X154980000Y-149100000D03*
X157520000Y-149100000D03*
X160060000Y-149100000D03*
X162600000Y-149100000D03*
%TD*%
D13*
%TO.C,J1*%
X139930001Y-78340000D03*
X139930000Y-103340000D03*
D14*
X141980000Y-95155000D03*
D15*
X141980000Y-92864999D03*
X141980000Y-90575000D03*
X141980000Y-88284999D03*
X141980000Y-85995000D03*
X140000000Y-96300000D03*
X140000000Y-94010000D03*
X140000000Y-91720000D03*
X140000000Y-89430000D03*
X140000000Y-87140000D03*
X138020000Y-95155000D03*
X138020000Y-92865000D03*
X138020000Y-90575000D03*
X138020000Y-88285000D03*
X138020000Y-85995000D03*
%TD*%
D11*
%TO.C,H1*%
X140697056Y-123797056D03*
X139994112Y-125494112D03*
X139994112Y-122100000D03*
X138297056Y-126197056D03*
D12*
X138297056Y-123797056D03*
D11*
X138297056Y-121397056D03*
X136600000Y-125494112D03*
X136600000Y-122100000D03*
X135897056Y-123797056D03*
%TD*%
D24*
%TO.C,J6*%
X189925000Y-143575000D03*
D25*
X192465000Y-143575000D03*
X189925000Y-146115000D03*
X192465000Y-146115000D03*
X189925000Y-148655000D03*
X192465000Y-148655000D03*
%TD*%
%LPD*%
M02*
